<?xml version="1.0" encoding="UTF-8" standalone="no"?>
<!-- Created with Inkscape (http://www.inkscape.org/) -->

<svg
   xmlns:dc="http://purl.org/dc/elements/1.1/"
   xmlns:cc="http://creativecommons.org/ns#"
   xmlns:rdf="http://www.w3.org/1999/02/22-rdf-syntax-ns#"
   xmlns:svg="http://www.w3.org/2000/svg"
   xmlns="http://www.w3.org/2000/svg"
   xmlns:sodipodi="http://sodipodi.sourceforge.net/DTD/sodipodi-0.dtd"
   xmlns:inkscape="http://www.inkscape.org/namespaces/inkscape"
   width="174.9913"
   height="269.88925"
   id="svg2"
   version="1.1"
   inkscape:version="0.48.4 r9939"
   sodipodi:docname="cover.svg"
   inkscape:export-filename="/home/damien/Projects/damien.git/SailfishOS/Daily Comics/images/cover.png"
   inkscape:export-xdpi="90.036934"
   inkscape:export-ydpi="90.036934">
  <defs
     id="defs4" />
  <sodipodi:namedview
     id="base"
     pagecolor="#ffffff"
     bordercolor="#666666"
     borderopacity="1.0"
     inkscape:pageopacity="0.0"
     inkscape:pageshadow="2"
     inkscape:zoom="1.979899"
     inkscape:cx="188.85897"
     inkscape:cy="95.720697"
     inkscape:document-units="px"
     inkscape:current-layer="layer1"
     showgrid="true"
     inkscape:window-width="1366"
     inkscape:window-height="717"
     inkscape:window-x="-2"
     inkscape:window-y="-3"
     inkscape:window-maximized="1"
     inkscape:snap-bbox="true"
     inkscape:snap-global="true"
     fit-margin-top="30"
     fit-margin-right="30"
     fit-margin-bottom="30"
     fit-margin-left="30">
    <inkscape:grid
       type="xygrid"
       id="grid2985"
       units="px"
       empspacing="10"
       visible="true"
       enabled="true"
       snapvisiblegridlinesonly="true"
       spacingx="1px"
       spacingy="1px"
       empcolor="#ff0000"
       empopacity="0.25098039"
       originx="-205.0087px"
       originy="-0.11074137px" />
  </sodipodi:namedview>
  <metadata
     id="metadata7">
    <rdf:RDF>
      <cc:Work
         rdf:about="">
        <dc:format>image/svg+xml</dc:format>
        <dc:type
           rdf:resource="http://purl.org/dc/dcmitype/StillImage" />
        <dc:title></dc:title>
      </cc:Work>
    </rdf:RDF>
  </metadata>
  <g
     inkscape:label="Layer 1"
     inkscape:groupmode="layer"
     id="layer1"
     transform="translate(-205.0087,-782.36218)">
    <path
       inkscape:connector-curvature="0"
       id="path3997"
       d="M 291.39126,1021.9238 C 286.90509,1021.2039 285.19295,1020.4517 280.08331,1016.9557 277.65871,1015.2968 277.65304,1015.1147 277.53804,1015.0014 277.42304,1014.8881 275.63715,1012.9185 276.10204,1012.1741 275.49621,1008.998 276.30965,1006.9574 277.90448,1005.5419 278.5192,1005.5419 280.02777,1004.7999 281.25686,1003.8932 282.48595,1002.9863 285.08199,1001.7431 287.02586,1001.1304 288.96973,1000.5175 290.71368,999.61615 290.90131,999.12724 291.08894,998.63827 291.91561,997.98225 292.73836,997.66949 293.8443,997.24901 294.14038,996.74177 293.87414,995.72362 293.64028,994.82936 294.02816,993.79928 294.98039,992.78571 296.3765,991.29961 296.41977,990.93512 295.88354,985.17817 295.32897,979.22417 295.28976,979.12064 293.32515,978.4212 292.22781,978.03052 290.31238,977.08263 289.06865,976.31482 287.82493,975.54702 285.69986,974.52919 284.34628,974.05305 280.45593,972.68462 278.48852,970.1761 278.12278,966.11795 277.87527,963.37153 277.4175,962.28219 275.92401,960.88547 274.88661,959.91531 274.03783,958.57065 274.03783,957.89734 274.03783,957.22403 275.22663,954.70202 276.67959,952.29297 278.76566,948.83427 279.18375,947.65574 278.66718,946.69056 277.85007,945.16372 278.34685,944.64115 280.61525,944.64115 282.62029,944.64115 283.48715,943.78285 285.82507,939.48293 286.72548,937.82682 287.99754,936.36914 288.65186,936.2436 289.30619,936.118 292.07527,937.11894 294.80537,938.46792 299.29046,940.68405 300.40156,940.95103 306.32626,941.23635 312.14561,941.51656 312.98206,941.41708 313.76082,940.35204 315.55932,937.89244 314.92835,937.61033 306.94386,937.30413 L 299.24941,937.00905 291.06384,932.88994 C 286.56177,930.62443 280.427,927.17824 277.43102,925.23171 274.43504,923.28518 270.69104,921.34677 269.11101,920.92419 266.5795,920.24708 266.08033,920.29875 264.90906,921.35875 263.84129,922.32504 262.90183,922.49052 260.13215,922.20003 249.56895,921.09236 239.98583,912.96899 239.98583,905.12256 239.98583,901.00567 241.57387,898.18957 244.55611,897.01811 249.17239,895.20478 247.54391,892.88813 242.59055,894.22192 238.68893,895.27249 237.45673,893.98402 241.01587,892.57531 242.43026,892.01548 244.42552,891.09169 245.44977,890.52243 L 247.31206,889.48738 251.34339,893.74153 C 253.56062,896.08129 255.79524,898.12075 256.30921,898.27372 258.21354,898.84036 256.24457,899.9845 251.98053,900.78905 246.08436,901.90157 244.56975,903.41197 244.56975,908.17905 244.56975,912.58715 246.07766,914.7152 250.73915,916.88582 254.84824,918.79915 258.86734,918.90923 261.07979,917.16891 261.97366,916.4658 264.0025,915.43861 265.58832,914.88632 268.30734,913.93934 268.56493,913.95604 270.10876,915.1791 273.61985,917.96069 287.66536,927.58955 291.40117,929.77608 296.31361,932.65125 302.6383,934.81846 306.11675,934.81846 312.35591,934.81846 331.52076,927.01119 336.47191,922.45254 338.67555,920.42356 340.39432,917.25843 341.49367,913.2048 342.1226,910.88579 342.12018,908.59534 341.48223,902.40357 340.58505,893.69582 337.44771,878.4806 335.60851,873.91776 334.95522,872.29701 333.13997,867.60081 331.57462,863.48178 329.5122,858.0548 328.11211,855.394 326.4899,853.81852 325.25865,852.62275 324.41423,851.48143 324.61341,851.28226 324.81259,851.08308 330.60605,850.84093 337.48777,850.74414 346.94653,850.61112 350,850.76181 350,851.36161 350,852.52062 347.78689,852.93552 341.15957,853.01898 333.87255,853.11075 332.05333,853.57389 331.78775,855.40489 331.39297,858.12661 333.78517,859.50425 339.03132,859.57638 344.54689,859.65221 346.83591,860.16897 347.2574,861.43345 347.50479,862.17561 346.57582,862.26299 342.06718,861.92166 339.04684,861.693 336.2164,861.73188 335.77731,862.00806 335.1834,862.38163 335.88129,865.27024 338.50279,873.28904 341.4663,882.35401 342.14796,885.36938 342.78984,892.25345 343.20963,896.75552 343.99511,902.35151 344.53535,904.68905 345.6877,909.67498 345.34312,912.87365 343.1418,917.62495 340.8254,922.6247 336.17377,927.25865 330.73479,929.98478 322.93351,933.895 319.65759,935.80427 319.39426,936.59427 319.25574,937.00984 321.17055,939.50605 323.64938,942.14148 330.83713,949.78314 331.57815,951.31502 328.71749,952.61843 326.73238,953.5229 326.65575,954.6476 328.41124,957.11296 330.67002,960.2851 333.08869,966.16778 332.67284,967.47794 332.45693,968.15826 331.69965,969.38432 330.99001,970.20255 329.45275,971.97503 329.36934,974.83952 330.69513,980.33028 331.80347,984.92042 331.96133,993.54298 330.98408,996.11331 330.17568,998.23953 330.94152,998.96812 334.00112,998.98337 337.38151,999.0002 342.36157,1000.8079 346.63265,1003.5685 348.86916,1005.014 348.20602,1006.7094 348.50334,1006.7094 348.87855,1007.9479 347.34961,1010.9486 347.34961,1010.9486 346.03516,1013.398 344.57494,1013.6207 341.33467,1014.6478 338.24527,1015.627 330.96516,1016.3249 328.35486,1017.6747 323.79121,1020.0347 319.2239,1021.1299 312.28319,1021.5286 297.451,1022.3806 294.57679,1022.435 291.39126,1021.9238 z M 322.16903,1017.5995 C 325.26224,1015.9857 327.73522,1012.6344 327.73522,1010.0566 327.73522,1008.5783 327.17665,1007.8891 324.89474,1006.5518 321.03587,1004.2904 316.24706,1003.4348 313.61162,1004.5359 311.32308,1005.4922 309.06486,1008.0926 307.71225,1011.3295 306.52569,1014.1689 305.09607,1013.7067 305.28716,1010.5455 305.36643,1009.2342 305.1733,1008.1612 304.85798,1008.1612 304.54267,1008.1612 303.07827,1009.1692 301.60377,1010.4011 300.12927,1011.633 298.06328,1012.8297 297.01268,1013.0605 294.61352,1013.5874 289.9732,1012.3763 288.77059,1010.9093 288.2697,1010.2983 287.31078,1009.0987 286.63967,1008.2437 285.45414,1006.7332 285.3601,1006.7197 283.33031,1007.7694 281.68007,1008.6227 281.24114,1009.2658 281.24114,1010.8299 281.24114,1011.9191 281.67689,1013.6528 282.20946,1014.6827 283.10266,1016.4099 283.82025,1016.811 289.75414,1018.8997 290.29439,1019.0899 297.21939,1019.1826 305.14303,1019.1058 318.31983,1018.9781 319.77325,1018.8495 322.16903,1017.5995 z M 339.87093,1012.1718 C 345.14753,1009.7749 346.07098,1007.2908 342.81581,1004.25 339.13316,1000.8099 331.48498,1000.3098 328.96648,1003.3444 328.19991,1004.268 328.29986,1004.554 329.70875,1005.4679 332.83528,1007.4961 334.28369,1009.376 334.28369,1011.4057 334.28369,1013.0415 334.54851,1013.3974 335.75709,1013.3856 336.56746,1013.3777 338.41869,1012.8315 339.87093,1012.1718 z M 296.03171,1008.7536 C 297.2555,1007.4014 297.25118,1007.3634 295.73324,1006.1342 294.8861,1005.4483 293.98231,1004.887 293.72482,1004.887 292.66146,1004.887 290.26733,1008.1572 290.63301,1009.1102 291.2047,1010.6 294.56142,1010.3783 296.03171,1008.7536 z M 327.63942,992.22065 C 328.71656,991.36561 328.24831,986.61831 327.01145,985.85384 326.20214,985.35367 316.43334,985.64815 306.78015,986.46376 L 301.8688,986.87874 301.66283,989.38012 C 301.31043,993.65993 301.49501,993.71481 314.8469,993.29695 321.76396,993.08046 327.12441,992.62947 327.63942,992.22065 z M 325.63874,980.62417 C 325.77664,978.98372 325.46386,977.9636 324.57677,977.16082 323.39018,976.08694 322.69869,976.08183 312.30451,977.06967 306.24636,977.64547 301.05164,978.26365 300.76069,978.44347 299.88127,978.98699 300.16457,980.80779 301.3287,982.09417 302.32962,983.20014 303.43376,983.2907 313.93448,983.12798 L 325.44326,982.94966 z M 316.27542,973.70009 C 319.5169,973.46677 322.53738,972.98532 322.98759,972.63013 324.1214,971.73555 324.01551,968.90969 322.83115,968.45516 321.7843,968.05348 301.97417,969.4003 300.4765,969.975 299.98169,970.1649 299.57684,971.03493 299.57684,971.90843 299.57684,974.07145 301.63652,974.83016 306.45272,974.44137 308.61372,974.26692 313.03393,973.93334 316.27542,973.70009 z M 293.99407,972.82633 C 294.63028,971.79691 292.30482,965.60553 291.02465,964.92037 288.97323,963.82252 285.96261,964.19362 284.54089,965.71967 282.17374,968.26054 283.20647,970.69356 287.43373,972.53492 289.78115,973.55746 293.44171,973.72006 293.99407,972.82633 z M 317.25769,966.24493 C 321.62078,966.2243 322.25271,965.62151 321.28778,962.40091 320.8522,960.94709 320.2605,959.61212 319.97289,959.43439 319.68529,959.25667 314.90891,959.54539 309.35871,960.07614 298.38747,961.12514 296.2696,961.91266 298.47533,964.12283 300.56475,966.21644 303.5641,966.91097 309.07211,966.5768 311.95343,966.40196 315.63694,966.25265 317.25769,966.24493 z M 328.39007,963.75684 C 328.39007,961.7238 326.81056,959.09931 326.04673,959.86312 325.4147,960.49511 326.94044,965.59623 327.76151,965.59623 328.10722,965.59623 328.39007,964.76851 328.39007,963.75684 z M 290.83639,961.31531 C 292.14884,957.89511 279.77168,953.71097 278.0206,956.98291 277.15685,958.59684 278.29999,959.69463 280.88098,959.72979 281.97948,959.74479 284.35166,960.30855 286.15249,960.98258 290.27299,962.52487 290.3696,962.53175 290.83639,961.31531 z M 314.63205,956.54986 C 318.1597,955.97739 318.81993,954.43373 316.25572,952.75359 314.65104,951.70217 313.93748,951.68383 306.8841,952.51313 295.47701,953.85432 294.44008,953.77888 290.75797,951.33997 287.37008,949.09588 284.91693,948.71332 283.04197,950.13662 280.85668,951.79548 281.73907,952.89425 286.64362,954.62154 289.25482,955.54114 292.93615,956.8672 294.82434,957.56834 298.37599,958.8872 301.08831,958.74779 314.63205,956.54986 z M 314.91216,949.48243 C 316.37038,948.92287 316.19905,946.8567 314.55841,945.21611 313.24405,943.9017 312.6502,943.83969 303.58974,944.07013 294.0705,944.31216 294.00933,944.3045 293.80139,942.84033 293.66492,941.87941 293.14155,941.36692 292.29672,941.36692 290.88944,941.36692 287.78961,944.32074 287.78961,945.66173 287.78961,946.1179 289.63136,947.22596 291.88239,948.12415 295.50646,949.57025 297.00023,949.76428 304.92576,949.81857 309.84858,949.85229 314.34246,949.70102 314.91216,949.48243 z M 323.80615,948.84304 C 323.80615,947.68665 322.39642,947.88801 321.99168,949.10229 321.84911,949.52997 322.19904,949.87992 322.76931,949.87992 323.33957,949.87992 323.80615,949.41335 323.80615,948.84304 z M 310.38814,925.09465 C 307.23953,924.58092 306.38899,922.66386 309.01704,922.00423 311.93643,921.27152 318.98696,923.48471 317.73182,924.73992 317.149,925.32273 313.01109,925.52259 310.38814,925.09465 z M 321.6779,909.88185 C 319.34698,908.52416 320.34251,907.31492 323.79105,907.31492 326.50834,907.31492 327.22133,907.0537 328.07961,905.74381 329.40781,903.71667 329.5825,899.25638 328.38997,897.81952 327.70226,896.99087 326.86196,896.79874 325.14301,897.07718 320.44449,897.83818 320.20449,897.82718 320.20449,896.85087 320.20449,896.31808 321.16975,895.2867 322.34951,894.55891 L 324.49452,893.23572 324.31404,886.35984 C 324.13777,879.64419 324.16828,879.47897 325.62273,879.27257 326.8344,879.10067 327.35042,879.60051 328.39189,881.95488 329.09589,883.54642 329.86999,886.98011 330.11213,889.58535 330.35425,892.19059 330.88828,894.66709 331.29884,895.08861 333.40921,897.2555 334.28369,899.3254 334.28369,902.15401 334.28369,904.85001 334.00192,905.4621 331.91898,907.29095 328.27801,910.48771 324.40183,911.46835 321.6779,909.88185 z M 311.2098,893.72686 C 309.47893,889.85442 309.12197,881.44849 310.68839,881.44849 312.92662,881.44849 316.60706,891.50287 315.69664,895.13026 314.97113,898.02095 312.82977,897.3511 311.2098,893.72686 z M 235.18093,888.53995 C 234.4595,887.81851 236.14089,886.35984 237.69387,886.35984 240.41746,886.35984 240.71099,885.00031 238.86723,880.92514 236.91365,876.60721 237.25492,875.56876 239.82895,877.99883 240.81564,878.93034 243.09635,880.55024 244.89718,881.59858 249.38023,884.20841 249.29424,885.64219 244.56975,887.05784 240.05412,888.41095 235.7339,889.0929 235.18093,888.53995 z M 245.4651,876.37343 C 242.45544,873.13993 239.33352,868.54979 239.71938,867.92546 240.31164,866.96715 241.17447,867.30299 243.60675,869.43856 245.54501,871.14036 249.15368,876.80936 249.15368,878.15245 249.15368,879.17938 247.19967,878.23693 245.4651,876.37343 z M 253.86159,872.43001 C 252.93267,871.31075 248.99029,852.10877 249.29942,850.20932 249.51414,848.89004 249.68086,849.01742 250.66224,851.25058 252.26835,854.90534 254.94083,865.09397 255.44842,869.49751 255.88088,873.24916 255.35223,874.22613 253.86159,872.43001 z M 276.37386,866.13087 C 275.62426,864.91798 283.70105,858.59607 285.52792,858.96576 286.46337,859.15505 286.41106,859.42953 285.12972,861.055 283.3884,863.26399 278.78542,866.71442 277.57988,866.71442 277.11493,866.71442 276.57222,866.45182 276.37386,866.13087 z M 303.62404,863.6039 C 304.16134,860.72886 319.27837,858.90141 324.13357,861.12458 326.03707,861.99617 325.95568,862.02787 321.51418,862.14454 311.84033,862.39868 307.99053,862.80307 306.14134,863.75932 303.69369,865.02504 303.36228,865.00458 303.62404,863.6039 z M 290.40899,859.59813 C 290.40899,858.91157 295.04351,855.77935 297.36574,854.89644 299.77336,853.98107 299.05914,855.07951 295.47838,857.79916 292.49299,860.06661 290.40899,860.80616 290.40899,859.59813 z M 263.08943,857.71028 C 263.27238,856.71983 263.87877,853.68557 264.43696,850.96749 264.99515,848.24942 265.77383,842.20846 266.16736,837.54314 266.99074,827.78181 267.15558,827.03701 268.61658,826.47637 270.37595,825.80123 271.82864,827.98541 274.25528,834.95437 277.34163,843.818 277.3309,843.7948 278.34457,843.7948 278.83537,843.7948 280.23704,841.63022 281.45938,838.98463 284.59184,832.20482 291.37541,820.57828 294.79545,816.12754 297.43926,812.68699 297.90817,812.36218 300.23131,812.36218 301.62966,812.36218 302.95287,812.65197 303.17177,813.00615 303.39067,813.36033 302.81412,816.04216 301.89055,818.96578 299.98388,825.00145 298.38075,836.96703 299.34904,837.93532 299.91511,838.50139 316.05803,826.7269 320.56775,822.45858 322.47541,820.65303 326.67886,820.28578 328.68095,821.74975 329.8087,822.57438 329.76785,822.70206 327.96563,823.98534 325.75573,825.55893 316.13222,843.81323 316.87712,845.0185 317.55515,846.11557 318.93245,845.93102 325.47139,843.86693 332.17615,841.75049 340.61804,840.08818 341.28325,840.75338 341.52737,840.9975 341.40099,841.52336 341.0024,841.92195 340.3648,842.55955 320.02072,848.48817 315.05688,849.48293 311.56578,850.18255 311.12323,847.02135 313.65603,839.47626 315.43514,834.17638 315.6518,832.66241 314.63112,832.66241 313.63592,832.66241 303.93872,842.1176 301.86511,845.10981 300.47808,847.11131 299.62128,847.72388 298.20886,847.72388 296.63502,847.72388 296.26404,847.36332 295.68219,845.2682 295.30711,843.91758 294.99857,839.05535 294.99657,834.46324 294.99445,829.63463 294.73083,826.11395 294.37139,826.11395 292.46181,826.11395 284.76516,841.74741 283.16962,848.86705 282.41329,852.24195 281.54724,853.61749 280.17869,853.61749 278.45049,853.61749 276.93047,851.24686 275.12659,845.73821 273.0994,839.54764 271.77272,837.28497 270.7625,838.29519 270.40443,838.65327 269.6816,842.20537 269.15622,846.18876 268.19517,853.47534 267.39008,856.25077 265.62414,858.36513 264.09938,860.19072 262.69814,859.8287 263.08943,857.71028 z"
       style="fill:#ffffff;opacity:1"
       sodipodi:nodetypes="cssccccccscssssssssssscsssscsssssssssscsssssssssssssssscsssssssssssssssssssssscccssscssscssssccccssssscssssccscscsscscssssssssscssssssssssssssssssssssssssssssssssssssssssssssssssssssssssssscsssssssssssssssssssssssssssssssssssssssssssssssssssscssssssssssssssssssssssss"
       inkscape:export-filename="/home/damien/Projects/damien.git/SailfishOS/Daily Comics/images/cover.png"
       inkscape:export-xdpi="90"
       inkscape:export-ydpi="90" />
  </g>
</svg>
