<svg id="Layer_1" data-name="Layer 1" xmlns="http://www.w3.org/2000/svg" viewBox="0 0 416.81 33.69"><defs><style>.cls-1{fill:#fff;}</style></defs><title>TFP_WHT</title><path class="cls-1" d="M275.46,22.94l0,0,0,.06Z"/><path class="cls-1" d="M17.12,22.63V6a4.41,4.41,0,0,0,3-4A7.5,7.5,0,0,1,19,3a1.53,1.53,0,0,1-.71.16c-.95,0-1.67-.77-2.17-2.31A54.07,54.07,0,0,1,6.17,7.08L6.54,8,9,6.71V18.24a8,8,0,0,1-.17,2.08A5.6,5.6,0,0,1,7.49,22Q4,19.52,4,13.19A14.92,14.92,0,0,1,5.29,7,19.57,19.57,0,0,1,10.4.88q-5.66,2.67-8,6.39A14.93,14.93,0,0,0,0,15.38a12.58,12.58,0,0,0,2.78,8.28,9.61,9.61,0,0,0,7.79,3.6A11.11,11.11,0,0,0,17,25.37q2.69-1.83,4.88-6.83A18.81,18.81,0,0,1,17.12,22.63Zm-1,.4a9.49,9.49,0,0,1-1.17.33l-.75.18h-1A9.79,9.79,0,0,1,7.53,22a9,9,0,0,0,4-2,5.91,5.91,0,0,0,1.31-4.21V4.42l.3-.17a3,3,0,0,0,2.85,2h.16"/><path class="cls-1" d="M35,10.8a1.59,1.59,0,0,1-.6-.12,3.17,3.17,0,0,1-.7-.36,6.75,6.75,0,0,1-1.42-1.84l-5.1,4.18V7.91A22.56,22.56,0,0,1,28.47,0a20.3,20.3,0,0,1-6.14,3.48,4.34,4.34,0,0,1,1.08,1.45,6.28,6.28,0,0,1,.18,1.81V22.37a3.53,3.53,0,0,0-2.06,3l.94-.35.33,0c1.13,0,2.11.72,2.93,2.15A13,13,0,0,1,30,24.19L29,23.42,28.39,23c-.58-.31-1-.53-1.24-.63V14l2.36-1.92a8.28,8.28,0,0,0,1.07,1.08,3.47,3.47,0,0,0,.93.49V23.82A2.55,2.55,0,0,1,31,25.09a2.54,2.54,0,0,0-.49,1.26,8.87,8.87,0,0,0,.53,1.71,7.4,7.4,0,0,1,.49,2.52,2.92,2.92,0,0,1-.38,1.61,6.22,6.22,0,0,1-1.26,1.19,4.38,4.38,0,0,0,3-1.05,2.93,2.93,0,0,0,.79-2.06,4.06,4.06,0,0,0-1-2.41,4.81,4.81,0,0,1-1-1.62,1.07,1.07,0,0,1,.56-.84A3.86,3.86,0,0,1,34.44,25l1.61.33a4.92,4.92,0,0,1-.59-1,4.3,4.3,0,0,1-.16-.63c-.12-.59-.19-.89-.19-.91v-9.7a4.55,4.55,0,0,0,1-1.12,5,5,0,0,0,.54-1.85l-1.14.54Z"/><path class="cls-1" d="M50.62,22.61a3.31,3.31,0,0,1-.46-1.94V12.91a3.78,3.78,0,0,0,1.63-2.34l-1,.3-.39,0a1.56,1.56,0,0,1-1.22-.58,3.38,3.38,0,0,1-.51-2.17q-2.57,3.41-3.91,3.41c-.9,0-1.61-1-2.13-3.11A16.82,16.82,0,0,1,41.4,9.86a4.6,4.6,0,0,1-3.2,1.24l3.88,4.79q-3.64,2.19-3.64,5.49a4.65,4.65,0,0,0,1.4,3.25,8.65,8.65,0,0,0,3.69,2.21l3.25-2.94a5.09,5.09,0,0,0,3.08,3l3.09-3.78h-.89A1.82,1.82,0,0,1,50.62,22.61Zm-4.13.11-.93.75q-3.6-.8-3.6-3.89a4.87,4.87,0,0,1,.86-2.74l2.08,2.61.89-.65L41.15,13l.1,0a3.58,3.58,0,0,0,1.17.18,9.1,9.1,0,0,0,2.76-.73,4,4,0,0,0,1.31,1.31Z"/><path class="cls-1" d="M61.89,23.63a4.24,4.24,0,0,0-2.06-1.54l0-9.94,1.41.16a4.58,4.58,0,0,1,1.42.66l-.19-1.89.1-1.1.11-.7a5.88,5.88,0,0,1-1.4.51l-1.21.11h-.26V9.05a13.18,13.18,0,0,1,.31-3.25,5.05,5.05,0,0,1,1.06-1.94l-.59-.6a13.09,13.09,0,0,1-2.81,2.1,7.22,7.22,0,0,1-3.27.75A5.26,5.26,0,0,1,55.9,7.76a4.5,4.5,0,0,1,.26,1.74v.39h-.25l-1.24-.11a7.82,7.82,0,0,1-1.4-.49l.17,1.4,0,.45-.07.66L53.24,13a6.56,6.56,0,0,1,1-.58,6.77,6.77,0,0,1,1.9-.28h.06V22.84a5.31,5.31,0,0,0-1.3.89,4.05,4.05,0,0,0-.77,1.77l1.22-.22.73-.06a3.22,3.22,0,0,1,1.76.53,4.1,4.1,0,0,1,1.51,1.8,6.36,6.36,0,0,1,1.48-1.71l2.55-2L62.82,23Z"/><path class="cls-1" d="M72.67,23.63a4.23,4.23,0,0,0-2.06-1.54l0-9.94L72,12.3a4.56,4.56,0,0,1,1.41.66l-.19-1.89.11-1.1.11-.7a5.87,5.87,0,0,1-1.4.51l-1.2.11h-.26V9.05a13.19,13.19,0,0,1,.31-3.25A5.09,5.09,0,0,1,72,3.86l-.59-.6a13,13,0,0,1-2.81,2.1,7.24,7.24,0,0,1-3.27.75,5.27,5.27,0,0,1,1.37,1.64,4.56,4.56,0,0,1,.26,1.74v.39H66.7l-1.24-.11a7.73,7.73,0,0,1-1.4-.49l.17,1.4,0,.45-.07.66L64,13a6.77,6.77,0,0,1,1-.58,6.78,6.78,0,0,1,1.91-.28h0V22.84a5.35,5.35,0,0,0-1.29.89,4.07,4.07,0,0,0-.77,1.77l1.22-.22.73-.06a3.24,3.24,0,0,1,1.77.53,4.09,4.09,0,0,1,1.5,1.8,6.45,6.45,0,0,1,1.48-1.71l2.55-2L73.6,23Z"/><path class="cls-1" d="M88.8,23.14a1.83,1.83,0,0,1-1.43-.52,3.31,3.31,0,0,1-.46-1.94V12.91a3.75,3.75,0,0,0,1.62-2.34l-1,.3-.39,0A1.56,1.56,0,0,1,86,10.35a3.37,3.37,0,0,1-.51-2.17q-2.57,3.41-3.91,3.41T79.4,8.48a16.5,16.5,0,0,1-1.26,1.38,4.59,4.59,0,0,1-3.19,1.24l3.88,4.79q-3.64,2.19-3.63,5.49a4.64,4.64,0,0,0,1.4,3.25,8.6,8.6,0,0,0,3.68,2.21l3.25-2.94a5.07,5.07,0,0,0,3.08,3l3.09-3.78Zm-5.56-.42-.93.75q-3.6-.8-3.6-3.89a4.89,4.89,0,0,1,.85-2.74l2.08,2.61.89-.65L77.9,13l.1,0a3.59,3.59,0,0,0,1.17.18,9.06,9.06,0,0,0,2.76-.74,3.88,3.88,0,0,0,1.31,1.31Z"/><path class="cls-1" d="M104.39,22.75a2.11,2.11,0,0,1-.85-2V13a5,5,0,0,0,1.64-2.27l-.8.16-.19,0a1.66,1.66,0,0,1-1.2-.45,4.77,4.77,0,0,1-1-1.84l-6.27,5.07a8.56,8.56,0,0,0-.47-3.15,4.45,4.45,0,0,0-1.94-2,7.3,7.3,0,0,1-.77,1.17l-.42.5a7.45,7.45,0,0,1-1.4,1.26c-.27.2-.8.55-1.59,1a4.7,4.7,0,0,1,2.48.66A2.49,2.49,0,0,1,92,14.94V22.3a5.22,5.22,0,0,0-2.34,2.29l.73-.11h.35a4.87,4.87,0,0,1,2.06.6A6.24,6.24,0,0,1,94.62,27c.38-.49.69-.86.93-1.12a9.2,9.2,0,0,1,2.67-1.76,5,5,0,0,0-2.57-1.89V15l3-2.5.52.54.66.46v8.38a6.86,6.86,0,0,0,.63,3.43,4.21,4.21,0,0,0,2.55,1.5l.82-1.11.66-.72a25.91,25.91,0,0,1,2-1.92A4.78,4.78,0,0,1,104.39,22.75Z"/><path class="cls-1" d="M121.08,12.2a4.92,4.92,0,0,0,.73-1.42l-.63.12-.58.09q-1.59,0-2.55-2.48a14.36,14.36,0,0,1-8.57,2.81h-.89l-1.07-.07a5.84,5.84,0,0,1,1,3.15v7.79a4.41,4.41,0,0,0-2,3.09l.59-.16a4.37,4.37,0,0,1,2.23.28,6,6,0,0,1,2,1.66,14,14,0,0,1,3.6-2.15,9.35,9.35,0,0,1,3.23-.68c.36,0,.75,0,1.17.07l1.82.23a8.9,8.9,0,0,1-.89-3.39c0-.42,0-.67,0-.74V12.95A4.68,4.68,0,0,0,121.08,12.2Zm-4.49,11.2-1.19.28-.68.19-.4-.61a6.19,6.19,0,0,0-2.06-1.37V12.15l1.38-.33.43-.12a4.63,4.63,0,0,0,2.52,1.89Z"/><path class="cls-1" d="M137.39,12.2a5,5,0,0,0,.74-1.42l-.63.12-.58.09q-1.59,0-2.55-2.48a14.38,14.38,0,0,1-8.56,2.81h-.89l-1.07-.07a5.83,5.83,0,0,1,1,3.15v7.79a4.39,4.39,0,0,0-2,3.09,6.06,6.06,0,0,1,.59-.16,4.38,4.38,0,0,1,2.24.28,6,6,0,0,1,2,1.66,14,14,0,0,1,3.6-2.15,9.36,9.36,0,0,1,3.23-.68c.36,0,.75,0,1.17.07l1.82.23a8.76,8.76,0,0,1-.89-3.39c0-.42,0-.67,0-.74V12.95A4.23,4.23,0,0,0,137.39,12.2Zm-4.49,11.2-1.19.28-.69.19-.4-.61a6.19,6.19,0,0,0-2.06-1.37V12.15l1.38-.33.44-.12a4.6,4.6,0,0,0,2.51,1.89Z"/><path class="cls-1" d="M152.67,22.54V13a4.29,4.29,0,0,0,1.57-2.18l-.68.09L153,11q-1.57,0-2.55-2.49a15,15,0,0,1-4.14,2.15,14.17,14.17,0,0,1-4.39.66H141L140,11.27a4.91,4.91,0,0,1,.79,1.64A4.89,4.89,0,0,1,141,14.5v7.13a4.52,4.52,0,0,0-2,3.11l1.06-.16.4,0c1.08-.09,2.24.6,3.48,2.06l2.7-2.07L149,22.87a3.22,3.22,0,0,0,.18,1.08,1.17,1.17,0,0,0,.4.68q1.66,1.22,1.66,2.22c0,.82-.65,1.59-2,2.33A5.72,5.72,0,0,0,145.82,28a5.1,5.1,0,0,0-3.16,1,12.49,12.49,0,0,0-2.23,2.53,17.44,17.44,0,0,1,2.84-.56,4.39,4.39,0,0,1,3.44,1.57l4.59-3.34a12.48,12.48,0,0,0,2.52-2.2,2.9,2.9,0,0,0,.63-1.83A3.07,3.07,0,0,0,152.67,22.54Zm-3.68-1-1.36.89-.84.63a5.63,5.63,0,0,0-2.1-1.75V12.18l.79-.14,1-.31a5.78,5.78,0,0,0,1.15,1.17,4,4,0,0,0,1.33.7Z"/><path class="cls-1" d="M168.08,22.61a3.31,3.31,0,0,1-.45-1.94V12.91a3.76,3.76,0,0,0,1.62-2.34l-1,.3-.38,0a1.57,1.57,0,0,1-1.22-.58,3.39,3.39,0,0,1-.5-2.17c-1.72,2.27-3,3.41-3.91,3.41s-1.61-1-2.13-3.11a16.33,16.33,0,0,1-1.26,1.38,4.6,4.6,0,0,1-3.2,1.24l3.88,4.79q-3.64,2.19-3.63,5.49a4.63,4.63,0,0,0,1.4,3.25A8.6,8.6,0,0,0,161,26.83l3.25-2.94a5.1,5.1,0,0,0,3.08,3l3.1-3.78h-.89A1.82,1.82,0,0,1,168.08,22.61Zm-4.12.11-.93.75q-3.6-.8-3.6-3.89a4.85,4.85,0,0,1,.86-2.74l2.08,2.61.89-.65L158.61,13l.11,0a3.58,3.58,0,0,0,1.17.18,9,9,0,0,0,2.76-.74A3.88,3.88,0,0,0,164,13.83Z"/><path class="cls-1" d="M197.14,20.13V5.37A6.4,6.4,0,0,0,199.22,4,9.31,9.31,0,0,0,201,1.12a7.5,7.5,0,0,1-1.79.68,8.4,8.4,0,0,0-1,.16h-1.4a42.67,42.67,0,0,1-5-.45,42.49,42.49,0,0,0-5.13-.45,6.65,6.65,0,0,0-4.42,1.29q-1.5,1.29-2,5.31A4.62,4.62,0,0,1,182,5.6a5.36,5.36,0,0,1,2.08-.33,55.14,55.14,0,0,1,5.59.38q3.23.33,4.2.33l1.14-.1,1-.23V21a15.71,15.71,0,0,1-2.91,1.38,8.73,8.73,0,0,1-2.83.47,5.64,5.64,0,0,1-2.61-.59,19.91,19.91,0,0,0,2.94-1.52,4.91,4.91,0,0,0,2.2-2.73,7.93,7.93,0,0,0,.21-1.92V6.41a33.88,33.88,0,0,1-5.19,3.18v1.29l1.26-.67v8.56a4.4,4.4,0,0,1-.37,2,7.42,7.42,0,0,1-1.16,1.42,5.63,5.63,0,0,1-1.82-1.56,9.49,9.49,0,0,1-1.71-6A13,13,0,0,1,185,9.86a27,27,0,0,1,2.38-4.39,16,16,0,0,0-5.35,5.7,14.28,14.28,0,0,0-1.52,6.48A9.61,9.61,0,0,0,183,24.48a8.79,8.79,0,0,0,6.7,2.74A8.93,8.93,0,0,0,196,24.81q2.66-2.43,3.62-7.56l-1.78,2.2Z"/><path class="cls-1" d="M206.42,22.49a3.51,3.51,0,0,1-.51-2.24V13.16a3.32,3.32,0,0,0,1.84-3.09l-1,.44-.28,0q-1.28,0-2.13-2a25.73,25.73,0,0,1-2.29,2l-1,.78-1.38.88.54.82.93-.56.5.54.66.4V20.4a10.06,10.06,0,0,0,.7,4.42,3.84,3.84,0,0,0,2.58,1.89,10.47,10.47,0,0,1,.56-.94l.63-.72A21.37,21.37,0,0,1,209,23C207.61,23,206.75,22.86,206.42,22.49Z"/><path class="cls-1" d="M201.3,7l.75-.49a8,8,0,0,0,.89.77,2.59,2.59,0,0,0,1.13.31A2.8,2.8,0,0,0,205.8,7a3.74,3.74,0,0,0,1.24-2l-.59.11h-.19a1.63,1.63,0,0,1-1.31-.58,7.12,7.12,0,0,1-.73-1.33,4.52,4.52,0,0,1-1,1.22q-1,.75-2.37,1.75Z"/><path class="cls-1" d="M229.42,21.11V13.34a3.86,3.86,0,0,0,1-1.15,13.1,13.1,0,0,0,.74-1.4l-.95.23-.37,0a2.08,2.08,0,0,1-1.31-.47,4.27,4.27,0,0,1-.84-1.94l-5.49,4.69a7.28,7.28,0,0,0-.28-2.07,4.23,4.23,0,0,0-1.82-2.47l-5.37,4.54a7,7,0,0,0-.47-2.65,3.78,3.78,0,0,0-1.92-1.89,12.1,12.1,0,0,1-4.25,3.88,5.51,5.51,0,0,1,2.59.59,2.33,2.33,0,0,1,.38,1.59v7.71a4.25,4.25,0,0,0-2.2,2,7.45,7.45,0,0,1,2.62.66,5.34,5.34,0,0,1,1.84,1.9,13.31,13.31,0,0,1,3.35-3.62l-1.31-.73-.62-.31v-7.9l2.73-2.13a2.78,2.78,0,0,1,1,2.48V22.6a6.57,6.57,0,0,0-2,2,6.68,6.68,0,0,1,2.62.68,4.4,4.4,0,0,1,1.66,2,12.55,12.55,0,0,1,3.79-2.92c-.34-.44-.59-.75-.75-.94a6.27,6.27,0,0,0-1.61-1v-7.9l2.07-1.64.63.52a4.28,4.28,0,0,0,.78.47v7.13a9.4,9.4,0,0,0,.65,4.3A3.94,3.94,0,0,0,229,27a15.88,15.88,0,0,1,3.55-3.81,5.85,5.85,0,0,1-2.15-.28A1.79,1.79,0,0,1,229.42,21.11Z"/><path class="cls-1" d="M245.8,15A16.45,16.45,0,0,1,242,8.49a9.25,9.25,0,0,1-3.28,2,11.32,11.32,0,0,1-3.83.65h-1.82a4.43,4.43,0,0,1,1.33,3.18v8.11a3.07,3.07,0,0,0-1.8,3.13l1.21-.38a4.5,4.5,0,0,1,.86-.07,7.52,7.52,0,0,1,5.17,2l4.25-3.65-.61-.8-1.07.8a9.07,9.07,0,0,0-4.31-1.43v-2Zm-7.72-3.3.7-.19,3,5-3.65,2.36Z"/><path class="cls-1" d="M259.2,16.67a2.46,2.46,0,0,1,.94-1.13H256a24.92,24.92,0,0,0,2.4-3.1,9.68,9.68,0,0,0,1.29-3.64h-1.12a1.67,1.67,0,0,1-.3,1,1,1,0,0,1-.63.21,2.11,2.11,0,0,1-1.12-.43,8.31,8.31,0,0,1-.82-.86,9.46,9.46,0,0,1-3,1.68,9.34,9.34,0,0,1-3.27.52l-1,0L247,10.75A10.8,10.8,0,0,1,248,12a2.35,2.35,0,0,1,.1.77V16.9a4.75,4.75,0,0,1-.89,2.69h3.13a36.72,36.72,0,0,0-2.69,3,6.16,6.16,0,0,0-1.5,3.53v.24l-.09.48h1c.15-1.21.64-1.82,1.48-1.82s1.73.68,2.81,2a7.27,7.27,0,0,1,5.4-2.45l1.35.1,2,.46a5.33,5.33,0,0,1-.68-1.05,4.71,4.71,0,0,1-.33-2.06v-4Zm-7.45-5.06,1.15-.3a4.53,4.53,0,0,0,1,1.1,2.69,2.69,0,0,0,1.47.46,3.55,3.55,0,0,0,1.84-.63A36.94,36.94,0,0,1,254.71,15l-2.46,2.55h-.49Zm3.63,12-1.11.24a4.53,4.53,0,0,0-3.16-1.68,6.2,6.2,0,0,0-1.78.32l-.51.23c.44-.48,1-1.06,1.78-1.75q2.29-2.11,3.41-3.34h1.38Z"/><path class="cls-1" d="M272.6,4.86a1.93,1.93,0,0,1,.91-.18,8.11,8.11,0,0,1,2.24.54,8.14,8.14,0,0,0,2.66.6,5.41,5.41,0,0,0,3.14-1.2A11.55,11.55,0,0,0,284.67.7a7.24,7.24,0,0,1-3.83,1.4,11.29,11.29,0,0,1-2.73-.51,11.06,11.06,0,0,0-2.69-.51,3.81,3.81,0,0,0-2.8,1.27,5.39,5.39,0,0,0-1.29,3.88A7.47,7.47,0,0,1,272.6,4.86Z"/><path class="cls-1" d="M293.18,1.69l-1.22.7-.68.09a2.53,2.53,0,0,1-.89-.19A13,13,0,0,1,289,.91q-1.23,1-2.92,2.17c-.46.31-1.49,1-3.08,2a2.86,2.86,0,0,0-1,2.29V22.18q0,2.9-2.37,2.9a8.2,8.2,0,0,1-3-1.45c-.42-.27-.81-.5-1.16-.69l-.08,0,0-.06a5,5,0,0,0-2.09-.75,4.06,4.06,0,0,0-2.69,1.08,10.28,10.28,0,0,0-2.43,3.81,5.26,5.26,0,0,1,2.67-1.15,8.67,8.67,0,0,1,2.4.66,9.07,9.07,0,0,0,3.26.68,11.16,11.16,0,0,0,4.33-1A15.56,15.56,0,0,0,284.71,24a3.12,3.12,0,0,0,1-1.35,6.08,6.08,0,0,0,.18-1.73v-5.6h2.79v8.55h1V6a5.35,5.35,0,0,0,2.11-1.35A6.59,6.59,0,0,0,293.18,1.69Zm-4.48,9.87H285.9v-6a1.79,1.79,0,0,1,.12-.59l.21-.28a3.18,3.18,0,0,0,.4.48c.12.09.4.27.87.56a3,3,0,0,0,1.2.38Z"/><path class="cls-1" d="M279.52,20.25a4.54,4.54,0,0,0,.91-3v-8a6.12,6.12,0,0,1,.49-2.66q.19-.29,1.31-1.78l-1.35.87q-4.28,2.8-4.28,4.63v1h-.42c-2.1,0-3.15,1.15-3.15,3.46l.1.91.63,1.68a4.07,4.07,0,0,1,.89-1.85,2.67,2.67,0,0,1,1.42-.27h.52v4.27a5,5,0,0,1-.28,1.85,12.61,12.61,0,0,1-.9,1.52l0,0A14.26,14.26,0,0,0,279.52,20.25Z"/><path class="cls-1" d="M303.16,10.5l-.47.09a1.14,1.14,0,0,1-.72-.32,1.63,1.63,0,0,1-.4-.49c-.08-.17-.28-.65-.58-1.44l-3.07,4a5,5,0,0,0-1.14-2.92,9.31,9.31,0,0,0-1.23-.95,10.66,10.66,0,0,1-4.29,4,5.23,5.23,0,0,1,2.6.63,2.82,2.82,0,0,1,.4,1.84V22.3a5.24,5.24,0,0,0-2.34,2.29l.73-.11H293a4.91,4.91,0,0,1,2.06.6,6.26,6.26,0,0,1,1.85,2,8.24,8.24,0,0,1,1.71-1.78c.95-.7,1.79-1.29,2.54-1.79l-.72-.72-.66.46a1.11,1.11,0,0,0-.37-.26,2,2,0,0,1-.36-.23,7.19,7.19,0,0,0-1.1-.47V14l1-1.36a2.88,2.88,0,0,0,2.25,1.08,2.44,2.44,0,0,0,1.88-1,5.5,5.5,0,0,0,1-2.85Z"/><path class="cls-1" d="M317.28,15a16.41,16.41,0,0,1-3.81-6.52,9.33,9.33,0,0,1-3.29,2,11.35,11.35,0,0,1-3.83.65h-1.82a4.42,4.42,0,0,1,1.33,3.18v8.11a3.07,3.07,0,0,0-1.8,3.13l1.2-.38a4.44,4.44,0,0,1,.86-.07,7.53,7.53,0,0,1,5.17,2l4.25-3.65-.61-.8-1.07.8a9,9,0,0,0-4.31-1.43v-2Zm-7.72-3.3.7-.19,3,5-3.65,2.36Z"/><path class="cls-1" d="M331,15a16.4,16.4,0,0,1-3.81-6.52,9.33,9.33,0,0,1-3.29,2,11.35,11.35,0,0,1-3.83.65H318.3a4.43,4.43,0,0,1,1.32,3.18v8.11a3.07,3.07,0,0,0-1.79,3.13l1.2-.38a4.47,4.47,0,0,1,.86-.07,7.53,7.53,0,0,1,5.17,2l4.25-3.65-.61-.8-1.06.8a9.07,9.07,0,0,0-4.32-1.43v-2Zm-7.72-3.3.7-.19,3,5-3.65,2.36Z"/><path class="cls-1" d="M358,2.43A8.22,8.22,0,0,1,356.54.89c-1.11,1-2,1.8-2.78,2.4s-1.61,1.18-2.87,2V1h-1V6l-1.19.67,0-.4c0-.16,0-.33,0-.51a5.41,5.41,0,0,0-.93-3.18,3.3,3.3,0,0,0-2.87-1.52,4,4,0,0,0-3.2,1.3A4.8,4.8,0,0,0,340.6,5.7l.13.68.68,1.52a6.87,6.87,0,0,1,1.16-2.22,1.36,1.36,0,0,1,1-.38,1,1,0,0,1,.93.44,4.38,4.38,0,0,1,.28,1.89v4.6h-.35q-2.9,0-2.9,2.94a3.63,3.63,0,0,0,0,.68,2.68,2.68,0,0,0,.17.52c.1.24.19.42.25.54s.38.63.77,1.22c0-1.09.11-1.74.33-1.94a1.44,1.44,0,0,1,1.07-.33l.51,0h.1v5.19a4,4,0,0,0-3.25,4.27l.1,1,.68,1.87a8.72,8.72,0,0,1,.75-2,2.23,2.23,0,0,1,1.71-1.12v3.77l-.1,1.94-.39,2.88c.91-.55,1.42-.87,1.52-1a6.87,6.87,0,0,0,.52-.46,8.6,8.6,0,0,0,1-1,20.47,20.47,0,0,0,1.82,1.45,4.37,4.37,0,0,0,1.78.73V26.72l1.1.89a6.6,6.6,0,0,1,2.64-2.34,7.48,7.48,0,0,1,3.53-.68l.54,0h1a6.17,6.17,0,0,1-.85-2.78V5.91a5.29,5.29,0,0,0,1.59-1.66A5,5,0,0,0,360.87,2a2.93,2.93,0,0,1-1.59.8A2.62,2.62,0,0,1,358,2.43Zm-8.12,29.22a4.47,4.47,0,0,1-.8-1.27,9.4,9.4,0,0,1-.38-3.2V7.93l1.19-.73Zm5.07-8-.24.14-.37-.35a9.06,9.06,0,0,0-3.42-2V18.87l.26-.1c.73-.11,1.33-.17,1.8-.19l1,.07.94.22Zm0-5.84-.84-.14-1.31-.12-1.09.12-.8.14V11l.7.19,1.37.07,1.36-.07.61-.17Zm0-7.88a8.56,8.56,0,0,1-1.5.33c-.12,0-.66,0-1.63-.11l-.91-.22V6.55l2.48-1.68.64.7.91.61Z"/><path class="cls-1" d="M372.84,10.5l-.47.09a1.11,1.11,0,0,1-.71-.32,1.68,1.68,0,0,1-.41-.49c-.08-.17-.27-.65-.58-1.44l-3.07,4a5,5,0,0,0-1.14-2.92,9.35,9.35,0,0,0-1.22-.95,10.67,10.67,0,0,1-4.3,4,5.2,5.2,0,0,1,2.6.63,2.77,2.77,0,0,1,.4,1.84V22.3a5.19,5.19,0,0,0-2.34,2.29l.73-.11h.35a4.89,4.89,0,0,1,2.06.6,6.2,6.2,0,0,1,1.86,2,8.13,8.13,0,0,1,1.71-1.78q1.43-1,2.54-1.79l-.71-.72-.67.46a1.1,1.1,0,0,0-.37-.26,2.17,2.17,0,0,1-.37-.23,6.94,6.94,0,0,0-1.1-.47V14l1-1.36a2.87,2.87,0,0,0,2.25,1.08,2.42,2.42,0,0,0,1.87-1,5.46,5.46,0,0,0,1-2.85Z"/><path class="cls-1" d="M387,15a16.4,16.4,0,0,1-3.81-6.52,9.28,9.28,0,0,1-3.29,2,11.31,11.31,0,0,1-3.83.65h-1.82a4.42,4.42,0,0,1,1.33,3.18v8.11a3.07,3.07,0,0,0-1.8,3.13l1.2-.38a4.45,4.45,0,0,1,.86-.07,7.52,7.52,0,0,1,5.17,2l4.25-3.65-.61-.8-1.06.8a9.05,9.05,0,0,0-4.32-1.43v-2Zm-7.72-3.3.7-.19,3,5-3.66,2.36Z"/><path class="cls-1" d="M400.36,16.67a2.48,2.48,0,0,1,.95-1.13h-4.16a24.21,24.21,0,0,0,2.39-3.1,9.61,9.61,0,0,0,1.29-3.64h-1.12a1.73,1.73,0,0,1-.29,1,1,1,0,0,1-.63.21,2.12,2.12,0,0,1-1.12-.43,8.72,8.72,0,0,1-.82-.86,9.44,9.44,0,0,1-3,1.68,9.32,9.32,0,0,1-3.27.52l-1,0-1.4-.13a10.21,10.21,0,0,1,.92,1.21,2.43,2.43,0,0,1,.11.77V16.9a4.72,4.72,0,0,1-.89,2.69h3.13a35.47,35.47,0,0,0-2.68,3,6.16,6.16,0,0,0-1.51,3.53v.24l-.09.48h1c.15-1.21.64-1.82,1.49-1.82s1.73.68,2.81,2a7.27,7.27,0,0,1,5.4-2.45l1.35.1,2,.46a5.3,5.3,0,0,1-.68-1.05,4.72,4.72,0,0,1-.33-2.06v-4Zm-7.44-5.06,1.16-.3a4.41,4.41,0,0,0,1,1.1,2.67,2.67,0,0,0,1.46.46,3.53,3.53,0,0,0,1.83-.63A34.76,34.76,0,0,1,395.87,15l-2.46,2.55h-.49Zm3.63,12-1.11.24a4.54,4.54,0,0,0-3.17-1.68,6.21,6.21,0,0,0-1.78.32l-.51.23c.45-.48,1-1.06,1.78-1.75q2.29-2.11,3.41-3.34h1.38Z"/><path class="cls-1" d="M415.73,22v-4l.14-1.41a2.46,2.46,0,0,1,.94-1.13h-4.16a24.51,24.51,0,0,0,2.39-3.1,9.67,9.67,0,0,0,1.3-3.64h-1.12a1.69,1.69,0,0,1-.29,1,1,1,0,0,1-.63.21,2.09,2.09,0,0,1-1.12-.43,8.19,8.19,0,0,1-.82-.86,9.43,9.43,0,0,1-3,1.68,9.34,9.34,0,0,1-3.27.52l-1,0-1.4-.13a10.84,10.84,0,0,1,.92,1.21,2.5,2.5,0,0,1,.1.77V16.9a4.77,4.77,0,0,1-.89,2.69H407a36.17,36.17,0,0,0-2.69,3,6.16,6.16,0,0,0-1.5,3.53v.24l-.09.48h1c.15-1.21.64-1.82,1.48-1.82s1.73.68,2.81,2a7.27,7.27,0,0,1,5.4-2.45l1.34.1,2,.46a5.37,5.37,0,0,1-.68-1.05A4.7,4.7,0,0,1,415.73,22Zm-7.3-10.43,1.15-.3a4.52,4.52,0,0,0,1,1.1,2.67,2.67,0,0,0,1.47.46,3.52,3.52,0,0,0,1.83-.63A34.08,34.08,0,0,1,411.37,15l-2.46,2.55h-.49Zm3.63,12-1.12.24a4.52,4.52,0,0,0-3.16-1.68,6.14,6.14,0,0,0-1.78.32l-.51.23c.44-.48,1-1.06,1.78-1.75q2.28-2.11,3.41-3.34h1.38Z"/></svg>