<?xml version="1.0" encoding="UTF-8" standalone="no"?>
<!-- Created with Inkscape (http://www.inkscape.org/) -->

<svg
   xmlns:dc="http://purl.org/dc/elements/1.1/"
   xmlns:cc="http://creativecommons.org/ns#"
   xmlns:rdf="http://www.w3.org/1999/02/22-rdf-syntax-ns#"
   xmlns:svg="http://www.w3.org/2000/svg"
   xmlns="http://www.w3.org/2000/svg"
   xmlns:sodipodi="http://sodipodi.sourceforge.net/DTD/sodipodi-0.dtd"
   xmlns:inkscape="http://www.inkscape.org/namespaces/inkscape"
   width="540"
   height="270"
   id="svg2"
   version="1.1"
   inkscape:version="0.48.4 r9939"
   sodipodi:docname="harbour-cover.svg">
  <defs
     id="defs4" />
  <sodipodi:namedview
     id="base"
     pagecolor="#ffffff"
     bordercolor="#666666"
     borderopacity="1.0"
     inkscape:pageopacity="0.0"
     inkscape:pageshadow="2"
     inkscape:zoom="0.98994949"
     inkscape:cx="336.27792"
     inkscape:cy="114.56306"
     inkscape:document-units="px"
     inkscape:current-layer="layer1"
     showgrid="true"
     inkscape:window-width="1366"
     inkscape:window-height="717"
     inkscape:window-x="-2"
     inkscape:window-y="-3"
     inkscape:window-maximized="1"
     inkscape:snap-bbox="true"
     inkscape:snap-global="true">
    <inkscape:grid
       type="xygrid"
       id="grid2985"
       units="px"
       empspacing="10"
       visible="true"
       enabled="true"
       snapvisiblegridlinesonly="true"
       spacingx="1px"
       spacingy="1px"
       empcolor="#ff0000"
       empopacity="0.25098039" />
  </sodipodi:namedview>
  <metadata
     id="metadata7">
    <rdf:RDF>
      <cc:Work
         rdf:about="">
        <dc:format>image/svg+xml</dc:format>
        <dc:type
           rdf:resource="http://purl.org/dc/dcmitype/StillImage" />
        <dc:title></dc:title>
      </cc:Work>
    </rdf:RDF>
  </metadata>
  <g
     inkscape:label="Layer 1"
     inkscape:groupmode="layer"
     id="layer1"
     transform="translate(0,-782.36218)">
    <g
       id="g4160"
       inkscape:export-filename="/home/damien/Projects/damien.git/SailfishOS/Daily Comics/images/harbour-cover.png"
       inkscape:export-xdpi="90"
       inkscape:export-ydpi="90">
      <g
         id="g4020">
        <rect
           style="color:#000000;fill:#85f8ff;fill-opacity:1;fill-rule:nonzero;stroke:none;marker:none;visibility:visible;display:inline;overflow:visible;enable-background:accumulate"
           id="rect3006"
           width="90"
           height="90"
           x="0"
           y="872.36218" />
        <rect
           style="color:#000000;fill:#ecc539;fill-opacity:1;fill-rule:nonzero;stroke:none;marker:none;visibility:visible;display:inline;overflow:visible;enable-background:accumulate"
           id="rect3006-5"
           width="90"
           height="90"
           x="0"
           y="962.36218" />
        <rect
           style="color:#000000;fill:#ff8d75;fill-opacity:1;fill-rule:nonzero;stroke:none;marker:none;visibility:visible;display:inline;overflow:visible;enable-background:accumulate"
           id="rect3006-52"
           width="90"
           height="90"
           x="0"
           y="782.36218" />
        <rect
           style="color:#000000;fill:#96a8c8;fill-opacity:1;fill-rule:nonzero;stroke:none;marker:none;visibility:visible;display:inline;overflow:visible;enable-background:accumulate"
           id="rect3006-52-7"
           width="90"
           height="90"
           x="90"
           y="962.36218" />
        <rect
           style="color:#000000;fill:#ecc539;fill-opacity:1;fill-rule:nonzero;stroke:none;marker:none;visibility:visible;display:inline;overflow:visible;enable-background:accumulate"
           id="rect3006-56"
           width="90"
           height="90"
           x="360"
           y="962.36218" />
        <rect
           style="color:#000000;fill:#85f8ff;fill-opacity:1;fill-rule:nonzero;stroke:none;marker:none;visibility:visible;display:inline;overflow:visible;enable-background:accumulate"
           id="rect3006-52-7-9"
           width="90"
           height="90"
           x="270"
           y="962.36218" />
        <rect
           style="color:#000000;fill:#ff8d75;fill-opacity:1;fill-rule:nonzero;stroke:none;marker:none;visibility:visible;display:inline;overflow:visible;enable-background:accumulate"
           id="rect3006-4"
           width="90"
           height="90"
           x="360"
           y="872.36218" />
        <rect
           style="color:#000000;fill:#458ec5;fill-opacity:1;fill-rule:nonzero;stroke:none;marker:none;visibility:visible;display:inline;overflow:visible;enable-background:accumulate"
           id="rect3006-52-7-0"
           width="90"
           height="90"
           x="450"
           y="962.36218" />
        <rect
           style="color:#000000;fill:#ff8d75;fill-opacity:1;fill-rule:nonzero;stroke:none;marker:none;visibility:visible;display:inline;overflow:visible;enable-background:accumulate"
           id="rect3006-8"
           width="90"
           height="90"
           x="90"
           y="872.36218" />
        <rect
           style="color:#000000;fill:#26cbab;fill-opacity:1;fill-rule:nonzero;stroke:none;marker:none;visibility:visible;display:inline;overflow:visible;enable-background:accumulate"
           id="rect3006-52-7-1"
           width="90"
           height="90"
           x="180"
           y="872.36218" />
        <rect
           style="color:#000000;fill:#458ec5;fill-opacity:1;fill-rule:nonzero;stroke:none;marker:none;visibility:visible;display:inline;overflow:visible;enable-background:accumulate"
           id="rect3006-7"
           width="90"
           height="90"
           x="270"
           y="872.36218" />
        <rect
           style="color:#000000;fill:#f6ff54;fill-opacity:1;fill-rule:nonzero;stroke:none;marker:none;visibility:visible;display:inline;overflow:visible;enable-background:accumulate"
           id="rect3006-52-7-15"
           width="90"
           height="90"
           x="180"
           y="962.36218" />
        <rect
           style="color:#000000;fill:#f6ff54;fill-opacity:1;fill-rule:nonzero;stroke:none;marker:none;visibility:visible;display:inline;overflow:visible;enable-background:accumulate"
           id="rect3006-1"
           width="90"
           height="90"
           x="90"
           y="782.36218" />
        <rect
           style="color:#000000;fill:#458ec5;fill-opacity:1;fill-rule:nonzero;stroke:none;marker:none;visibility:visible;display:inline;overflow:visible;enable-background:accumulate"
           id="rect3006-52-7-8"
           width="90"
           height="90"
           x="180"
           y="782.36218" />
        <rect
           style="color:#000000;fill:#ecc539;fill-opacity:1;fill-rule:nonzero;stroke:none;marker:none;visibility:visible;display:inline;overflow:visible;enable-background:accumulate"
           id="rect3006-84"
           width="90"
           height="90"
           x="270"
           y="782.36218" />
        <rect
           style="color:#000000;fill:#26cbab;fill-opacity:1;fill-rule:nonzero;stroke:none;marker:none;visibility:visible;display:inline;overflow:visible;enable-background:accumulate"
           id="rect3006-52-7-4"
           width="90"
           height="90"
           x="360"
           y="782.36218" />
        <rect
           style="color:#000000;fill:#85f8ff;fill-opacity:1;fill-rule:nonzero;stroke:none;marker:none;visibility:visible;display:inline;overflow:visible;enable-background:accumulate"
           id="rect3006-6"
           width="90"
           height="90"
           x="450"
           y="782.36218" />
        <rect
           style="color:#000000;fill:#96a8c8;fill-opacity:1;fill-rule:nonzero;stroke:none;marker:none;visibility:visible;display:inline;overflow:visible;enable-background:accumulate"
           id="rect3006-52-7-2"
           width="90"
           height="90"
           x="450"
           y="872.36218" />
      </g>
      <g
         transform="translate(-1.9104571e-6,1.2578766e-7)"
         id="g4092">
        <g
           id="g4068"
           transform="translate(-3.8209141e-6,-9.0000151)">
          <text
             sodipodi:linespacing="125%"
             id="text3905"
             y="912.36218"
             x="216.55128"
             style="font-size:35.39819336px;font-style:italic;font-variant:normal;font-weight:bold;font-stretch:normal;line-height:125%;letter-spacing:0px;word-spacing:0px;fill:#ffffff;fill-opacity:1;stroke:#000000;stroke-width:2.65486431;stroke-linecap:round;stroke-linejoin:round;stroke-miterlimit:4;stroke-opacity:1;stroke-dasharray:none;font-family:rsfs10;-inkscape-font-specification:rsfs10 Bold Italic"
             xml:space="preserve"><tspan
               style="font-size:88.4954834px;font-style:italic;font-variant:normal;font-weight:bold;font-stretch:normal;fill:#ffffff;stroke:#000000;stroke-width:2.65486431;stroke-linecap:round;stroke-linejoin:round;stroke-miterlimit:4;stroke-opacity:1;stroke-dasharray:none;font-family:URW Bookman L;-inkscape-font-specification:URW Bookman L Bold Italic"
               y="912.36218"
               x="216.55128"
               id="tspan3907"
               sodipodi:role="line">Daily</tspan></text>
          <text
             sodipodi:linespacing="125%"
             id="text3905-1"
             y="1006.6453"
             x="172.52478"
             style="font-size:35.39819336px;font-style:italic;font-variant:normal;font-weight:bold;font-stretch:normal;line-height:125%;letter-spacing:0px;word-spacing:0px;fill:#ffffff;fill-opacity:1;stroke:#000000;stroke-width:2.65486431;stroke-linecap:round;stroke-linejoin:round;stroke-miterlimit:4;stroke-opacity:1;stroke-dasharray:none;font-family:rsfs10;-inkscape-font-specification:rsfs10 Bold Italic"
             xml:space="preserve"><tspan
               style="font-size:88.4954834px;font-style:italic;font-variant:normal;font-weight:bold;font-stretch:normal;fill:#ffffff;stroke:#000000;stroke-width:2.65486431;stroke-linecap:round;stroke-linejoin:round;stroke-miterlimit:4;stroke-opacity:1;stroke-dasharray:none;font-family:URW Bookman L;-inkscape-font-specification:URW Bookman L Bold Italic"
               y="1006.6453"
               x="172.52478"
               id="tspan3907-4"
               sodipodi:role="line">Comics</tspan></text>
        </g>
        <g
           id="g4042"
           transform="matrix(0.65484626,0,0,0.65484626,175.12872,215.29903)">
          <path
             transform="translate(0,782.36218)"
             inkscape:connector-curvature="0"
             id="path4040"
             d="M -121.21831,378.5914 -121.21831,413.94674 -147.98735,426.06857 -152.53303,429.6041 -152.02796,436.17009 -138.3909,446.27162 -105.56094,447.28177 -83.842661,444.75639 -69.700526,437.68532 -59.093924,438.1904 -46.972093,431.11933 -47.982246,422.53303 -57.073619,416.9772 -80.812204,416.47212 -73.23606,406.87567 -75.761441,383.64216 -77.781746,370.51018 -71.720831,364.44926 -77.27667,351.31728 -82.832509,347.27667 -75.761441,339.70053 -93.43911,317.47717 -63.63961,301.31473 -51.51778,281.61675 -58.588848,230.09897 -65.659915,213.93653 -56.568543,203.83501 -69.700526,201.30963 -60.609153,190.70303 -74.751288,190.19795 -68.185297,176.56089 -95.964492,184.13703 -94.954339,169.9949 -86.368043,148.78169 -122.22846,176.05581 -123.23861,160.90353 -124.24876,139.18525 -150.51273,185.14719 -164.65486,159.89337 -171.72593,198.27917 -180.31223,204.34008 -193.94929,197.26902 -188.39345,218.48222 -205.56604,221.0076 -198.49498,228.07867 -209.10158,233.63451 -203.54574,239.69542 -216.17264,245.25126 -197.48482,252.82741 -191.42391,259.3934 -207.58635,265.95939 -206.07112,278.08122 -199.00005,287.67767 -182.33253,295.25381 -166.17009,290.70813 -135.36044,309.90103 -125.76399,314.95179 -131.82491,323.53808 -139.40105,331.61931 -146.9772,339.19545 -151.52288,347.27667 -156.06857,350.8122 -148.9975,358.89342 -148.49242,370.0051 -134.35029,378.5914 z"
             style="fill:#ffffff;stroke:none" />
          <path
             sodipodi:nodetypes="cssccccccscssssssssssscsssscsssssssssscsssssssssssssssscsssssssssssssssssssssscccssscssscssssccccssssscssssccscscsscscssssssssscssssssssssssssssssssssssssssssssssssssssssssssssssssssssssssscsssssssssssssssssssssssssssssssssssssssssssssssssssscssssssssssssssssssssssss"
             style="fill:#1f1f1f"
             d="M -132.23794,1231.8619 C -139.08866,1230.7625 -141.70323,1229.6138 -149.50604,1224.2752 -153.20858,1221.7419 -153.21725,1221.4638 -153.39286,1221.2908 -153.56847,1221.1178 -156.29567,1218.1101 -155.58574,1216.9733 -156.51089,1212.1232 -155.26871,1209.007 -152.83328,1206.8454 -151.89455,1206.8454 -149.59085,1205.7124 -147.71394,1204.3277 -145.83703,1202.9429 -141.87267,1201.0444 -138.90423,1200.1087 -135.9358,1199.1729 -133.27266,1197.7964 -132.98613,1197.0498 -132.6996,1196.3031 -131.43721,1195.3013 -130.18082,1194.8237 -128.49196,1194.1816 -128.03983,1193.407 -128.4464,1191.8522 -128.80351,1190.4866 -128.2112,1188.9136 -126.75707,1187.3658 -124.6251,1185.0964 -124.55903,1184.5398 -125.37788,1175.7485 -126.22476,1166.6563 -126.28463,1166.4982 -129.28474,1165.4301 -130.96047,1164.8335 -133.88547,1163.386 -135.78474,1162.2135 -137.684,1161.041 -140.92914,1159.4867 -142.99616,1158.7596 -148.93702,1156.6699 -151.9414,1152.8392 -152.49991,1146.6421 -152.87789,1142.4481 -153.57693,1140.7846 -155.85761,1138.6517 -157.44179,1137.1702 -158.73794,1135.1168 -158.73794,1134.0886 -158.73794,1133.0604 -156.92256,1129.2091 -154.70377,1125.5303 -151.51819,1120.2486 -150.87973,1118.4489 -151.66858,1116.975 -152.91637,1114.6434 -152.15775,1113.8454 -148.69372,1113.8454 -145.63187,1113.8454 -144.30812,1112.5347 -140.73794,1105.9684 -139.36294,1103.4394 -137.42041,1101.2134 -136.42121,1101.0217 -135.422,1100.8299 -131.19341,1102.3584 -127.02434,1104.4184 -120.17526,1107.8026 -118.47853,1108.2103 -109.43106,1108.646 -100.54447,1109.0739 -99.267142,1108.922 -98.077922,1107.2956 -95.331482,1103.5396 -96.295012,1103.1088 -108.48794,1102.6412 L -120.23794,1102.1906 -132.73794,1095.9004 C -139.61294,1092.4408 -148.98119,1087.1782 -153.55628,1084.2057 -158.13137,1081.2332 -163.84875,1078.2731 -166.26157,1077.6278 -170.12738,1076.5938 -170.88965,1076.6727 -172.67827,1078.2914 -174.30883,1079.767 -175.74346,1080.0197 -179.97298,1079.5761 -196.10379,1077.8846 -210.73794,1065.4796 -210.73794,1053.4975 -210.73794,1047.2107 -208.31288,1042.9103 -203.75877,1041.1214 -196.70936,1038.3523 -199.19617,1034.8146 -206.76033,1036.8514 -212.7184,1038.4557 -214.60006,1036.4881 -209.16499,1034.3369 -207.00511,1033.482 -203.9582,1032.0713 -202.39408,1031.202 L -199.55023,1029.6214 -193.39408,1036.1178 C -190.0082,1039.6908 -186.59577,1042.8052 -185.81089,1043.0388 -182.90284,1043.9041 -185.9096,1045.6513 -192.42112,1046.8799 -201.42502,1048.5788 -203.73794,1050.8853 -203.73794,1058.165 -203.73794,1064.8965 -201.43525,1068.1462 -194.3168,1071.4609 -188.04191,1074.3827 -181.90443,1074.5508 -178.52585,1071.8932 -177.16085,1070.8195 -174.06266,1069.2509 -171.64099,1068.4075 -167.48884,1066.9614 -167.09548,1066.9869 -164.73794,1068.8546 -159.37624,1073.1023 -137.92767,1087.8063 -132.22281,1091.1453 -124.72113,1095.5359 -115.06286,1098.8454 -109.751,1098.8454 -100.22332,1098.8454 -70.957146,1086.9231 -63.396366,1079.9617 -60.031236,1076.8633 -57.406546,1072.0299 -55.727746,1065.8397 -54.767326,1062.2984 -54.771026,1058.8007 -55.745226,1049.3454 -57.115286,1036.048 -61.906246,1012.8132 -64.714846,1005.8454 -65.712466,1003.3704 -68.484486,996.19894 -70.874896,989.90887 -74.024366,981.62145 -76.162406,977.55821 -78.639656,975.15234 -80.519856,973.3263 -81.809356,971.58342 -81.505196,971.27927 -81.201036,970.97511 -72.353976,970.60533 -61.845066,970.45753 -47.400816,970.25439 -42.737946,970.4845 -42.737946,971.40045 -42.737946,973.17034 -46.117526,973.80393 -56.237946,973.93138 -67.365786,974.07151 -70.143876,974.77876 -70.549436,977.57485 -71.152296,981.73112 -67.499216,983.83488 -59.487946,983.94503 -51.065256,984.06083 -47.569746,984.84996 -46.926096,986.78091 -46.548316,987.91424 -47.966916,988.04768 -54.851956,987.52644 -59.464246,987.17726 -63.786546,987.23664 -64.457066,987.65839 -65.364016,988.22886 -64.298286,992.63998 -60.295056,1004.8853 -55.769546,1018.7282 -54.728606,1023.3329 -53.748396,1033.8454 -53.107356,1040.7204 -51.907866,1049.2659 -51.082876,1052.8355 -49.323146,1060.4494 -49.849356,1065.334 -53.210926,1072.5896 -56.748256,1080.2246 -63.851636,1087.301 -72.157386,1091.464 -84.070526,1097.4352 -89.073106,1100.3508 -89.475226,1101.5572 -89.686756,1102.1918 -86.762706,1106.0037 -82.977336,1110.0282 -72.001106,1121.6976 -70.869506,1124.0369 -75.237946,1126.0273 -78.269356,1127.4085 -78.386386,1129.126 -75.705616,1132.8908 -72.256286,1137.7349 -68.562796,1146.7182 -69.197826,1148.7189 -69.527546,1149.7578 -70.683966,1151.6301 -71.767636,1152.8796 -74.115156,1155.5863 -74.242526,1159.9606 -72.217946,1168.3454 -70.525426,1175.3549 -70.284366,1188.5222 -71.776696,1192.4473 -73.011176,1195.6942 -71.841686,1196.8068 -67.169446,1196.8301 -62.007336,1196.8558 -54.402396,1199.6163 -47.880136,1203.8319 -44.464816,1206.0393 -45.477491,1208.6284 -45.023451,1208.6284 -44.450474,1210.5196 -46.785293,1215.1019 -46.785293,1215.1019 -48.792553,1218.8423 -51.02242,1219.1824 -55.97055,1220.7508 -60.688304,1222.2462 -71.805586,1223.3119 -75.791716,1225.3732 -82.760756,1228.977 -89.735386,1230.6495 -100.33437,1231.2583 -122.98425,1232.5595 -127.37339,1232.6425 -132.23794,1231.8619 z M -85.237946,1225.2584 C -80.514376,1222.7939 -76.737946,1217.6763 -76.737946,1213.7397 -76.737946,1211.4823 -77.590936,1210.4298 -81.075586,1208.3877 -86.968366,1204.9343 -94.281242,1203.6277 -98.305762,1205.3093 -101.80054,1206.7695 -105.24901,1210.7406 -107.31455,1215.6835 -109.12652,1220.0195 -111.30965,1219.3138 -111.01784,1214.4864 -110.89679,1212.4839 -111.19171,1210.8454 -111.67323,1210.8454 -112.15474,1210.8454 -114.39099,1212.3846 -116.64266,1214.2658 -118.89434,1216.147 -122.04926,1217.9745 -123.6536,1218.3269 -127.31731,1219.1315 -134.40342,1217.2821 -136.2399,1215.0419 -137.0048,1214.1088 -138.46914,1212.277 -139.49398,1210.9713 -141.30437,1208.6647 -141.44798,1208.6441 -144.54763,1210.247 -147.06767,1211.5501 -147.73794,1212.5321 -147.73794,1214.9207 -147.73794,1216.5839 -147.07252,1219.2315 -146.25924,1220.8042 -144.89526,1223.4418 -143.79944,1224.0543 -134.73794,1227.2439 -133.91294,1227.5343 -123.33794,1227.6759 -111.23794,1227.5586 -91.115962,1227.3636 -88.896486,1227.1672 -85.237946,1225.2584 z M -58.205806,1216.9699 C -50.148026,1213.3096 -48.737846,1209.5162 -53.708746,1204.8727 -59.332436,1199.6193 -71.011776,1198.8556 -74.857726,1203.4897 -76.028336,1204.9002 -75.875706,1205.3368 -73.724216,1206.7325 -68.949766,1209.8297 -66.737946,1212.7004 -66.737946,1215.7999 -66.737946,1218.298 -66.333546,1218.8414 -64.487946,1218.8234 -63.250446,1218.8113 -60.423486,1217.9772 -58.205806,1216.9699 z M -125.15162,1211.75 C -123.2828,1209.685 -123.2894,1209.627 -125.60741,1207.75 -126.90106,1206.7025 -128.28121,1205.8454 -128.67441,1205.8454 -130.29825,1205.8454 -133.95427,1210.8392 -133.39584,1212.2945 -132.52283,1214.5695 -127.39686,1214.231 -125.15162,1211.75 z M -76.884246,1186.5029 C -75.239376,1185.1972 -75.954426,1177.9477 -77.843206,1176.7803 -79.079076,1176.0165 -93.996782,1176.4662 -108.73794,1177.7117 L -116.23794,1178.3454 -116.55247,1182.1652 C -117.09062,1188.7008 -116.80874,1188.7846 -96.419402,1188.1465 -85.856526,1187.8159 -77.670706,1187.1272 -76.884246,1186.5029 z M -79.939436,1168.7942 C -79.728846,1166.2891 -80.206496,1164.7313 -81.561146,1163.5054 -83.373156,1161.8655 -84.429116,1161.8577 -100.30181,1163.3662 -109.55307,1164.2455 -117.4858,1165.1895 -117.93011,1165.4641 -119.27305,1166.2941 -118.84043,1169.0746 -117.06272,1171.039 -115.53423,1172.7279 -113.84812,1172.8662 -97.812722,1172.6177 L -80.237946,1172.3454 z M -94.237942,1158.2206 C -89.287946,1157.8643 -84.675446,1157.1291 -83.987946,1156.5867 -82.256526,1155.2206 -82.418226,1150.9053 -84.226836,1150.2112 -85.825456,1149.5978 -116.07703,1151.6545 -118.36408,1152.5321 -119.1197,1152.8221 -119.73794,1154.1507 -119.73794,1155.4846 -119.73794,1158.7877 -116.59265,1159.9463 -109.23794,1159.3526 -105.93794,1159.0862 -99.187942,1158.5768 -94.237942,1158.2206 z M -128.26325,1156.8863 C -127.29171,1155.3143 -130.84286,1145.8596 -132.79778,1144.8133 -135.93045,1143.1368 -140.5279,1143.7035 -142.69898,1146.0339 -146.3138,1149.914 -144.73674,1153.6294 -138.28139,1156.4413 -134.6967,1158.0028 -129.10675,1158.2511 -128.26325,1156.8863 z M -92.737942,1146.836 C -86.075166,1146.8045 -85.110166,1145.884 -86.583676,1140.9659 -87.248846,1138.7458 -88.152416,1136.7072 -88.591616,1136.4358 -89.030806,1136.1644 -96.324702,1136.6053 -104.80028,1137.4158 -121.5542,1139.0177 -124.78834,1140.2203 -121.42002,1143.5954 -118.22932,1146.7925 -113.64909,1147.8531 -105.23794,1147.3428 -100.83794,1147.0758 -95.212942,1146.8478 -92.737942,1146.836 z M -75.737946,1143.0365 C -75.737946,1139.9319 -78.149976,1135.9241 -79.316406,1137.0905 -80.281556,1138.0556 -77.951636,1145.8454 -76.697806,1145.8454 -76.169886,1145.8454 -75.737946,1144.5814 -75.737946,1143.0365 z M -133.08527,1139.3081 C -131.08106,1134.0852 -149.98192,1127.6957 -152.65595,1132.6922 -153.97497,1135.1568 -152.2293,1136.8332 -148.28794,1136.8869 -146.61044,1136.9098 -142.98794,1137.7707 -140.23794,1138.8 -133.94562,1141.1552 -133.79809,1141.1657 -133.08527,1139.3081 z M -96.747482,1132.0309 C -91.360502,1131.1567 -90.352282,1128.7994 -94.268022,1126.2337 -96.718482,1124.6281 -97.808142,1124.6001 -108.57919,1125.8665 -125.99869,1127.9146 -127.58216,1127.7994 -133.20502,1124.075 -138.37859,1120.6481 -142.12473,1120.0639 -144.98794,1122.2374 -148.32504,1124.7706 -146.97757,1126.4485 -139.48794,1129.0862 -135.50044,1130.4905 -129.87878,1132.5155 -126.99537,1133.5862 -121.57173,1135.6002 -117.42981,1135.3873 -96.747482,1132.0309 z M -96.319732,1121.2384 C -94.092932,1120.3839 -94.354552,1117.2287 -96.859942,1114.7234 -98.867062,1112.7162 -99.773922,1112.6215 -113.60994,1112.9734 -128.14653,1113.343 -128.23994,1113.3313 -128.55749,1111.0954 -128.76589,1109.628 -129.56512,1108.8454 -130.85524,1108.8454 -133.00426,1108.8454 -137.73794,1113.3561 -137.73794,1115.4039 -137.73794,1116.1005 -134.92544,1117.7926 -131.48794,1119.1642 -125.95371,1121.3725 -123.67261,1121.6688 -111.56973,1121.7517 -104.05221,1121.8032 -97.189712,1121.5722 -96.319732,1121.2384 z M -82.737946,1120.262 C -82.737946,1118.4961 -84.890706,1118.8036 -85.508776,1120.6579 -85.726486,1121.311 -85.192116,1121.8454 -84.321276,1121.8454 -83.450446,1121.8454 -82.737946,1121.1329 -82.737946,1120.262 z M -103.22826,1083.9964 C -108.03642,1083.2119 -109.33527,1080.2844 -105.32204,1079.2771 -100.8639,1078.1582 -90.097202,1081.5379 -92.013902,1083.4547 -92.903912,1084.3447 -99.222822,1084.6499 -103.22826,1083.9964 z M -85.987946,1060.7653 C -89.547426,1058.692 -88.027186,1056.8454 -82.760996,1056.8454 -78.611496,1056.8454 -77.522696,1056.4465 -76.212036,1054.4462 -74.183776,1051.3506 -73.917016,1044.5394 -75.738096,1042.3452 -76.788286,1041.0798 -78.071486,1040.7864 -80.696456,1041.2116 -87.871446,1042.3737 -88.237946,1042.3569 -88.237946,1040.866 -88.237946,1040.0524 -86.763926,1038.4774 -84.962346,1037.366 L -81.686746,1035.3454 -81.962346,1024.8454 C -82.231526,1014.5901 -82.184946,1014.3378 -79.963876,1014.0226 -78.113566,1013.7601 -77.325566,1014.5234 -75.735166,1018.1187 -74.660106,1020.5491 -73.477996,1025.7926 -73.108236,1029.771 -72.738486,1033.7494 -71.922986,1037.5312 -71.296026,1038.1749 -68.073336,1041.4839 -66.737946,1044.6448 -66.737946,1048.9643 -66.737946,1053.0813 -67.168226,1054.016 -70.349036,1056.8088 -75.909066,1061.6905 -81.828296,1063.188 -85.987946,1060.7653 z M -101.97352,1036.0954 C -104.61669,1030.1819 -105.1618,1017.3454 -102.76976,1017.3454 -99.351802,1017.3454 -93.731492,1032.6992 -95.121772,1038.2385 -96.229682,1042.6528 -99.499712,1041.6299 -101.97352,1036.0954 z M -218.07539,1028.1746 C -219.17706,1027.0729 -216.60946,1024.8454 -214.23794,1024.8454 -210.0788,1024.8454 -209.63056,1022.7693 -212.44612,1016.5462 -215.42939,1009.9524 -214.90825,1008.3666 -210.97751,1012.0775 -209.47075,1013.5 -205.98794,1015.9737 -203.23794,1017.5746 -196.39198,1021.56 -196.52329,1023.7495 -203.73794,1025.9113 -210.63365,1027.9776 -217.23096,1029.019 -218.07539,1028.1746 z M -202.37068,1009.5954 C -206.96666,1004.6576 -211.73407,997.64811 -211.14483,996.6947 -210.2404,995.23129 -208.92279,995.74415 -205.20851,999.00533 -202.24865,1001.6041 -196.73794,1010.2611 -196.73794,1012.3121 -196.73794,1013.8803 -199.72186,1012.4411 -202.37068,1009.5954 z M -189.5486,1003.5735 C -190.96713,1001.8643 -196.98744,972.54141 -196.51537,969.64081 -196.18749,967.62617 -195.93289,967.82069 -194.43425,971.2309 -191.9816,976.81199 -187.90051,992.37081 -187.12538,999.09535 -186.46499,1004.8244 -187.27227,1006.3163 -189.5486,1003.5735 z M -155.17065,993.95423 C -156.31535,992.10206 -143.98148,982.44802 -141.19171,983.01256 -139.7632,983.30163 -139.84309,983.72078 -141.79978,986.20299 -144.45892,989.57628 -151.48802,994.84535 -153.32896,994.84535 -154.03898,994.84535 -154.86774,994.44435 -155.17065,993.95423 z M -113.55755,990.09535 C -112.73706,985.70495 -89.652206,982.9143 -82.237946,986.30924 -79.331156,987.64023 -79.455436,987.68863 -86.237946,987.8668 -101.01065,988.25489 -106.8896,988.87242 -109.71345,990.33269 -113.45119,992.26555 -113.95728,992.2343 -113.55755,990.09535 z M -133.73794,983.97824 C -133.73794,982.92981 -126.66067,978.14667 -123.11445,976.7984 -119.43784,975.40056 -120.52851,977.07797 -125.99659,981.23107 -130.55552,984.69365 -133.73794,985.823 -133.73794,983.97824 z M -175.45698,981.09535 C -175.1776,979.58285 -174.2516,974.94931 -173.3992,970.7986 -172.5468,966.64789 -171.3577,957.42289 -170.75675,950.2986 -169.49938,935.3923 -169.24766,934.25493 -167.0166,933.39879 -164.32991,932.36781 -162.11154,935.70322 -158.40589,946.34535 -153.69279,959.88078 -153.70917,959.84535 -152.16123,959.84535 -151.41173,959.84535 -149.27128,956.53988 -147.40468,952.49986 -142.62117,942.14658 -132.26215,924.39197 -127.03948,917.59535 -123.00219,912.34136 -122.28613,911.84535 -118.73851,911.84535 -116.60312,911.84535 -114.58248,912.28788 -114.2482,912.82874 -113.91393,913.36961 -114.79437,917.46497 -116.20473,921.92955 -119.11635,931.14648 -121.56446,949.41883 -120.08581,950.89748 -119.22137,951.76192 -94.569912,933.78137 -87.683226,927.26332 -84.770076,924.50611 -78.351096,923.9453 -75.293746,926.18089 -73.571596,927.44016 -73.633976,927.63513 -76.386096,929.59481 -79.760776,931.99779 -94.456612,959.8735 -93.319092,961.71404 -92.283692,963.38935 -90.180442,963.10753 -80.194996,959.9555 -69.956306,956.72354 -57.064906,954.18506 -56.049086,955.20088 -55.676296,955.57367 -55.869286,956.37669 -56.477966,956.98537 -57.451626,957.95903 -88.518576,967.01249 -96.098732,968.53156 -101.42992,969.59994 -102.10572,964.77254 -98.237942,953.25061 -95.521112,945.1573 -95.190252,942.84535 -96.748902,942.84535 -98.268652,942.84535 -113.07702,957.28414 -116.24358,961.85348 -118.36168,964.90991 -119.67007,965.84535 -121.82694,965.84535 -124.23032,965.84535 -124.79684,965.29475 -125.68536,962.09535 -126.25814,960.03285 -126.7293,952.60785 -126.73236,945.59535 -126.73559,938.2217 -127.13816,932.84535 -127.68705,932.84535 -130.60313,932.84535 -142.35649,956.71883 -144.79301,967.59107 -145.94798,972.7448 -147.27051,974.84535 -149.36038,974.84535 -151.99948,974.84535 -154.32067,971.22521 -157.07533,962.81309 -160.171,953.35962 -162.19694,949.90435 -163.73962,951.44703 -164.28643,951.99384 -165.39024,957.41817 -166.19254,963.50111 -167.66013,974.62828 -168.88956,978.86657 -171.58629,982.09535 -173.91471,984.88317 -176.05452,984.33034 -175.45698,981.09535 z"
             id="path3997"
             inkscape:connector-curvature="0" />
        </g>
      </g>
    </g>
  </g>
</svg>
