<?xml version="1.0" encoding="UTF-8" standalone="no"?>
<!-- Generator: Adobe Illustrator 17.0.1, SVG Export Plug-In . SVG Version: 6.00 Build 0)  -->

<svg
   xmlns:dc="http://purl.org/dc/elements/1.1/"
   xmlns:cc="http://creativecommons.org/ns#"
   xmlns:rdf="http://www.w3.org/1999/02/22-rdf-syntax-ns#"
   xmlns:svg="http://www.w3.org/2000/svg"
   xmlns="http://www.w3.org/2000/svg"
   xmlns:xlink="http://www.w3.org/1999/xlink"
   xmlns:sodipodi="http://sodipodi.sourceforge.net/DTD/sodipodi-0.dtd"
   xmlns:inkscape="http://www.inkscape.org/namespaces/inkscape"
   version="1.1"
   x="0px"
   y="0px"
   width="86px"
   height="86px"
   viewBox="0 0 86 86"
   enable-background="new 0 0 86 86"
   xml:space="preserve"
   id="svg2"
   inkscape:version="0.48.4 r9939"
   sodipodi:docname="logo.svg"
   inkscape:export-filename="/home/damien/Projects/damien.git/SailfishOS/Daily Comics/harbour-dailycomics.png"
   inkscape:export-xdpi="90.629997"
   inkscape:export-ydpi="90.629997"><metadata
     id="metadata35"><rdf:RDF><cc:Work
         rdf:about=""><dc:format>image/svg+xml</dc:format><dc:type
           rdf:resource="http://purl.org/dc/dcmitype/StillImage" /><dc:title></dc:title></cc:Work></rdf:RDF></metadata><defs
     id="defs33"><linearGradient
       id="linearGradient4274"><stop
         style="stop-color:#000000;stop-opacity:1;"
         offset="0"
         id="stop4276" /><stop
         style="stop-color:#ffffff;stop-opacity:0;"
         offset="1"
         id="stop4278" /></linearGradient><linearGradient
       id="linearGradient3958"
       gradientUnits="userSpaceOnUse"
       x1="79.238297"
       y1="91.327904"
       x2="6.7618999"
       y2="18.8514"><stop
         offset="0"
         style="stop-color:#ebca23;stop-opacity:1;"
         id="stop3960" /><stop
         offset="0.99510002"
         style="stop-color:#ddf009;stop-opacity:1"
         id="stop3962" /></linearGradient><linearGradient
       id="linearGradient4003"><stop
         style="stop-color:#ffb052;stop-opacity:1;"
         offset="0"
         id="stop4005" /><stop
         style="stop-color:#ffebd3;stop-opacity:1;"
         offset="1"
         id="stop4007" /></linearGradient><linearGradient
       id="SVGID_1_-2"
       gradientUnits="userSpaceOnUse"
       x1="85.179199"
       y1="0.8064"
       x2="12.7851"
       y2="73.2005"><stop
         offset="0"
         style="stop-color:#828282"
         id="stop7-0" /><stop
         offset="1"
         style="stop-color:#DADADA"
         id="stop9-5" /></linearGradient><linearGradient
       y2="73.2005"
       x2="12.7851"
       y1="0.8064"
       x1="85.179199"
       gradientUnits="userSpaceOnUse"
       id="linearGradient3026"><stop
         id="stop3028"
         style="stop-color:#828282"
         offset="0" /><stop
         id="stop3030"
         style="stop-color:#DADADA"
         offset="1" /></linearGradient><linearGradient
       id="SVGID_1_-1"
       gradientUnits="userSpaceOnUse"
       x1="85.179199"
       y1="0.8064"
       x2="12.7851"
       y2="73.2005"><stop
         offset="0"
         style="stop-color:#828282"
         id="stop7-7" /><stop
         offset="1"
         style="stop-color:#DADADA"
         id="stop9-6" /></linearGradient><linearGradient
       y2="73.2005"
       x2="12.7851"
       y1="0.8064"
       x1="85.1792"
       gradientUnits="userSpaceOnUse"
       id="SVGID_1_"><stop
         id="stop7"
         style="stop-color:#828282"
         offset="0" /><stop
         id="stop9"
         style="stop-color:#DADADA"
         offset="1" /></linearGradient><linearGradient
       id="SVGID_1_-1-3"
       gradientUnits="userSpaceOnUse"
       x1="85.179199"
       y1="0.8064"
       x2="12.7851"
       y2="73.2005"><stop
         offset="0"
         style="stop-color:#828282"
         id="stop7-7-0" /><stop
         offset="1"
         style="stop-color:#DADADA"
         id="stop9-6-9" /></linearGradient><linearGradient
       y2="73.2005"
       x2="12.7851"
       y1="0.8064"
       x1="85.179199"
       gradientUnits="userSpaceOnUse"
       id="linearGradient3931-4"><stop
         id="stop3933-7"
         style="stop-color:#828282"
         offset="0" /><stop
         id="stop3935-5"
         style="stop-color:#DADADA"
         offset="1" /></linearGradient><linearGradient
       inkscape:collect="always"
       xlink:href="#SVGID_1_-1-3"
       id="linearGradient3095"
       gradientUnits="userSpaceOnUse"
       x1="85.179199"
       y1="0.8064"
       x2="12.7851"
       y2="73.2005"
       gradientTransform="translate(-119.01398,96.386562)" /><linearGradient
       inkscape:collect="always"
       xlink:href="#linearGradient4003-2"
       id="linearGradient4009-3"
       x1="85.642029"
       y1="0.377579"
       x2="12.197593"
       y2="72.741745"
       gradientUnits="userSpaceOnUse" /><linearGradient
       id="linearGradient4003-2"><stop
         style="stop-color:#ffb052;stop-opacity:1;"
         offset="0"
         id="stop4005-1" /><stop
         style="stop-color:#ffebd3;stop-opacity:1;"
         offset="1"
         id="stop4007-4" /></linearGradient><linearGradient
       gradientTransform="translate(34.830246,144.77488)"
       y2="72.741745"
       x2="12.197593"
       y1="0.377579"
       x1="85.642029"
       gradientUnits="userSpaceOnUse"
       id="linearGradient3911"
       xlink:href="#linearGradient4003-2"
       inkscape:collect="always" /><linearGradient
       inkscape:collect="always"
       xlink:href="#SVGID_1_-1-3-7"
       id="linearGradient3095-7"
       gradientUnits="userSpaceOnUse"
       x1="85.179199"
       y1="0.8064"
       x2="12.7851"
       y2="73.2005"
       gradientTransform="translate(-119.01398,96.386562)" /><linearGradient
       id="SVGID_1_-1-3-7"
       gradientUnits="userSpaceOnUse"
       x1="85.179199"
       y1="0.8064"
       x2="12.7851"
       y2="73.2005"><stop
         offset="0"
         style="stop-color:#828282"
         id="stop7-7-0-8" /><stop
         offset="1"
         style="stop-color:#DADADA"
         id="stop9-6-9-3" /></linearGradient><linearGradient
       y2="73.2005"
       x2="12.7851"
       y1="0.8064"
       x1="85.179199"
       gradientTransform="translate(-69.821558,221.84952)"
       gradientUnits="userSpaceOnUse"
       id="linearGradient4005"
       xlink:href="#SVGID_1_-1-3-7"
       inkscape:collect="always" /><linearGradient
       id="SVGID_1_-1-2"
       gradientUnits="userSpaceOnUse"
       x1="85.179199"
       y1="0.8064"
       x2="12.7851"
       y2="73.2005"><stop
         offset="0"
         style="stop-color:#828282"
         id="stop7-7-8" /><stop
         offset="1"
         style="stop-color:#DADADA"
         id="stop9-6-0" /></linearGradient><linearGradient
       y2="73.2005"
       x2="12.7851"
       y1="0.8064"
       x1="85.179199"
       gradientUnits="userSpaceOnUse"
       id="linearGradient3931-2"><stop
         id="stop3933-2"
         style="stop-color:#828282"
         offset="0" /><stop
         id="stop3935-8"
         style="stop-color:#DADADA"
         offset="1" /></linearGradient><linearGradient
       inkscape:collect="always"
       xlink:href="#SVGID_1_-1-2"
       id="linearGradient4133"
       gradientUnits="userSpaceOnUse"
       x1="85.179199"
       y1="0.8064"
       x2="12.7851"
       y2="73.2005"
       gradientTransform="translate(152.16147,11.887302)" /><linearGradient
       y2="18.8514"
       x2="6.7618999"
       y1="91.327904"
       x1="79.238297"
       gradientUnits="userSpaceOnUse"
       id="SVGID_1_-9"><stop
         id="stop3047"
         style="stop-color:#2bbd1d;stop-opacity:1;"
         offset="0" /><stop
         id="stop3049"
         style="stop-color:#00af44;stop-opacity:1;"
         offset="0.99510002" /></linearGradient><linearGradient
       y2="73.193497"
       x2="12.8066"
       y1="0.71719998"
       x1="85.282898"
       gradientUnits="userSpaceOnUse"
       id="SVGID_1_-8"><stop
         id="stop3084"
         style="stop-color:#008075"
         offset="0" /><stop
         id="stop3086"
         style="stop-color:#00BFAF"
         offset="1" /></linearGradient><linearGradient
       inkscape:collect="always"
       xlink:href="#SVGID_1_-9-4"
       id="linearGradient3133-6"
       gradientUnits="userSpaceOnUse"
       x1="79.238297"
       y1="91.327904"
       x2="6.7618999"
       y2="18.8514"
       gradientTransform="matrix(0,-1,1,0,0,85.9995)" /><linearGradient
       y2="18.8514"
       x2="6.7618999"
       y1="91.327904"
       x1="79.238297"
       gradientUnits="userSpaceOnUse"
       id="SVGID_1_-9-4"><stop
         id="stop3047-3"
         style="stop-color:#eb9f23;stop-opacity:1;"
         offset="0" /><stop
         id="stop3049-8"
         style="stop-color:#ddd709;stop-opacity:1;"
         offset="0.99510002" /></linearGradient><linearGradient
       y2="18.8514"
       x2="6.7618999"
       y1="91.327904"
       x1="79.238297"
       gradientTransform="matrix(0,1,-1,0,86,4.9994038e-4)"
       gradientUnits="userSpaceOnUse"
       id="linearGradient4095"
       xlink:href="#SVGID_1_-9-4"
       inkscape:collect="always" /><linearGradient
       y2="18.8514"
       x2="6.7618999"
       y1="91.327904"
       x1="79.238297"
       gradientTransform="matrix(0,-1,1,0,0,85.9995)"
       gradientUnits="userSpaceOnUse"
       id="linearGradient4095-9"
       xlink:href="#SVGID_1_-9-4-4"
       inkscape:collect="always" /><linearGradient
       y2="18.8514"
       x2="6.7618999"
       y1="91.327904"
       x1="79.238297"
       gradientUnits="userSpaceOnUse"
       id="SVGID_1_-9-4-4"><stop
         id="stop3047-3-8"
         style="stop-color:#eb9f23;stop-opacity:1;"
         offset="0" /><stop
         id="stop3049-8-4"
         style="stop-color:#ddd709;stop-opacity:1;"
         offset="0.99510002" /></linearGradient><linearGradient
       y2="18.8514"
       x2="6.7618999"
       y1="91.327904"
       x1="79.238297"
       gradientTransform="matrix(0,-1,1,0,-119.69596,87.759386)"
       gradientUnits="userSpaceOnUse"
       id="linearGradient4208"
       xlink:href="#SVGID_1_-9-4-4"
       inkscape:collect="always" /><linearGradient
       y2="18.8514"
       x2="6.7618999"
       y1="91.327904"
       x1="79.238297"
       gradientTransform="matrix(0,-1,1,0,0,85.9995)"
       gradientUnits="userSpaceOnUse"
       id="linearGradient4095-8"
       xlink:href="#SVGID_1_-9-4-2"
       inkscape:collect="always" /><linearGradient
       y2="18.8514"
       x2="6.7618999"
       y1="91.327904"
       x1="79.238297"
       gradientUnits="userSpaceOnUse"
       id="SVGID_1_-9-4-2"><stop
         id="stop3047-3-6"
         style="stop-color:#eb9f23;stop-opacity:1;"
         offset="0" /><stop
         id="stop3049-8-9"
         style="stop-color:#ddd709;stop-opacity:1;"
         offset="0.99510002" /></linearGradient><linearGradient
       y2="18.8514"
       x2="6.7618999"
       y1="91.327904"
       x1="79.238297"
       gradientTransform="matrix(0,-1,1,0,121,82.999501)"
       gradientUnits="userSpaceOnUse"
       id="linearGradient4428"
       xlink:href="#SVGID_1_-9-4-2"
       inkscape:collect="always" /><linearGradient
       inkscape:collect="always"
       xlink:href="#SVGID_1_-9-4-2"
       id="linearGradient3089"
       gradientUnits="userSpaceOnUse"
       gradientTransform="matrix(0,-1,1,0,0,85.9995)"
       x1="79.238297"
       y1="91.327904"
       x2="6.7618999"
       y2="18.8514" /><radialGradient
       inkscape:collect="always"
       xlink:href="#linearGradient3931-2-3"
       id="radialGradient4059"
       cx="22"
       cy="63.620281"
       fx="22"
       fy="63.620281"
       r="32.03125"
       gradientTransform="matrix(1.8731706,-1.5765853,0.64018142,0.76061521,52.491699,126.86896)"
       gradientUnits="userSpaceOnUse" /><linearGradient
       y2="73.2005"
       x2="12.7851"
       y1="0.8064"
       x1="85.179199"
       gradientUnits="userSpaceOnUse"
       id="linearGradient3931-2-3"><stop
         id="stop3933-2-5"
         style="stop-color:#828282"
         offset="0" /><stop
         id="stop3935-8-1"
         style="stop-color:#DADADA"
         offset="1" /></linearGradient><linearGradient
       inkscape:collect="always"
       xlink:href="#SVGID_1_-9-4-2"
       id="linearGradient3920"
       gradientUnits="userSpaceOnUse"
       gradientTransform="matrix(0,-1,1,0,-85.7,100.83286)"
       x1="79.238297"
       y1="91.327904"
       x2="6.7618999"
       y2="18.8514" /><linearGradient
       inkscape:collect="always"
       xlink:href="#SVGID_1_-9-4-2"
       id="linearGradient3922"
       gradientUnits="userSpaceOnUse"
       gradientTransform="matrix(0,-1,1,0,-113.5,121.73307)"
       x1="79.238297"
       y1="91.327904"
       x2="6.7618999"
       y2="18.8514" /><linearGradient
       inkscape:collect="always"
       xlink:href="#SVGID_1_-9-4-2"
       id="linearGradient3924"
       gradientUnits="userSpaceOnUse"
       gradientTransform="matrix(0,-1,1,0,-142.03228,95.4995)"
       x1="79.238297"
       y1="91.327904"
       x2="6.7618999"
       y2="18.8514" /><linearGradient
       inkscape:collect="always"
       xlink:href="#SVGID_1_-9-4-2"
       id="linearGradient3926"
       gradientUnits="userSpaceOnUse"
       gradientTransform="matrix(0,-1,1,0,-106.59921,151.4995)"
       x1="79.238297"
       y1="91.327904"
       x2="6.7618999"
       y2="18.8514" /><linearGradient
       inkscape:collect="always"
       xlink:href="#SVGID_1_-9-4-2"
       id="linearGradient3968"
       gradientUnits="userSpaceOnUse"
       gradientTransform="matrix(0,-1,1,0,-142.03228,121.73307)"
       x1="79.238297"
       y1="91.327904"
       x2="6.7618999"
       y2="18.8514" /><linearGradient
       inkscape:collect="always"
       xlink:href="#linearGradient4138-6"
       id="linearGradient4152-7"
       x1="106.29921"
       y1="-16.755905"
       x2="31.889763"
       y2="54.110237"
       gradientUnits="userSpaceOnUse" /><linearGradient
       inkscape:collect="always"
       id="linearGradient4138-6"><stop
         style="stop-color:#ffffff;stop-opacity:1;"
         offset="0"
         id="stop4140-7" /><stop
         style="stop-color:#ffffff;stop-opacity:0;"
         offset="1"
         id="stop4142-5" /></linearGradient><linearGradient
       inkscape:collect="always"
       xlink:href="#linearGradient4274"
       id="linearGradient4280"
       x1="159.44882"
       y1="-6.1259842"
       x2="74.409447"
       y2="75.370079"
       gradientUnits="userSpaceOnUse"
       gradientTransform="matrix(1.1660115,0,0,1.2075143,-83.163245,-5.080098)" /><linearGradient
       inkscape:collect="always"
       xlink:href="#linearGradient4274"
       id="linearGradient4282"
       gradientUnits="userSpaceOnUse"
       gradientTransform="matrix(0.9940238,0,0,1.0294049,32.668076,43.501241)"
       x1="85.936218"
       y1="75.427757"
       x2="142.47865"
       y2="5.9220538" /></defs><sodipodi:namedview
     pagecolor="#ffffff"
     bordercolor="#666666"
     borderopacity="1"
     objecttolerance="10"
     gridtolerance="10"
     guidetolerance="10"
     inkscape:pageopacity="0"
     inkscape:pageshadow="2"
     inkscape:window-width="1366"
     inkscape:window-height="717"
     id="namedview31"
     showgrid="true"
     inkscape:zoom="4.0000001"
     inkscape:cx="8.1339482"
     inkscape:cy="56.384793"
     inkscape:window-x="-2"
     inkscape:window-y="-3"
     inkscape:window-maximized="1"
     inkscape:current-layer="svg2"
     inkscape:snap-bbox="true"
     inkscape:snap-grids="true"
     inkscape:snap-global="true"><inkscape:grid
       type="xygrid"
       id="grid4136"
       empspacing="10"
       visible="true"
       enabled="true"
       snapvisiblegridlinesonly="true"
       empcolor="#ff0000"
       empopacity="0.25098039" /></sodipodi:namedview><g
     id="Layer_2"
     display="none" /><g
     id="g4284"><path
       id="rect3858-9"
       d="M 43,0.3125 43,43 85.6875,43 85.6875,1.71875 C 85.6875,0.9327501 85.06725,0.3125 84.28125,0.3125 L 43,0.3125 z"
       style="color:#000000;fill:#ecc539;fill-opacity:1;stroke:none;stroke-width:1.01042736;marker:none;visibility:visible;display:inline;overflow:visible;enable-background:accumulate"
       inkscape:connector-curvature="0" /><path
       id="rect3858-5"
       d="M 43,43 43,85.6875 84.28125,85.6875 C 85.06725,85.6875 85.6875,85.06725 85.6875,84.28125 L 85.6875,43 43,43 z"
       style="color:#000000;fill:#458ec5;fill-opacity:1;stroke:none;stroke-width:1.01042736;marker:none;visibility:visible;display:inline;overflow:visible;enable-background:accumulate"
       inkscape:connector-curvature="0" /><path
       id="rect3858"
       d="M 0.3125,43 C 0.3125,66.583 19.418,85.6875 43,85.6875 L 43,43 0.3125,43 z"
       style="color:#000000;fill:#26cbab;fill-opacity:1;stroke:none;stroke-width:1.01042736;marker:none;visibility:visible;display:inline;overflow:visible;enable-background:accumulate"
       inkscape:connector-curvature="0" /><path
       id="rect3858-3"
       d="M 43,0.3125 C 19.418,0.3115 0.3125,19.417 0.3125,43 L 43,43 43,0.3125 z"
       style="color:#000000;fill:#ff8d75;fill-opacity:1;stroke:none;stroke-width:1.01042736;marker:none;visibility:visible;display:inline;overflow:visible;enable-background:accumulate"
       inkscape:connector-curvature="0" /><path
       sodipodi:nodetypes="sssssscsccssccccssscscsssssssssssssss"
       inkscape:connector-curvature="0"
       d="M 44.356299,64.740157 C 44.784805,65.554021 47.089304,65.253146 47.232735,65.964753 47.517493,67.377526 47.2498,65.47418 45.824956,68.972463 44.414062,72.436501 37.580054,76.55839 38.976378,78.913386 L 43,85.6995 C 43.151104,85.954347 51.767331,85.839072 63.639149,85.756829 68.115964,85.725816 63.777001,76.4495 63.777001,76.4495 64.563001,76.4495 63.090789,74.151794 63.325001,73.4015 L 58.282215,66.978977 66.393485,63.886075 C 68.779137,62.281181 70.205297,59.990936 70.942054,57.208259 71.601606,54.717181 70.903718,43.86634 70.803482,43.518514 L 67.966861,33.675184 71.374712,31.779556 66.330323,30.581038 72.92897,27.127804 65.370681,27.798062 C 63.975701,27.921766 70.127256,23.230228 69.938244,22.443241 69.745544,21.640897 65.152671,23.417099 61.156704,24.616273 57.038552,25.852113 64.005157,13.205199 63.505738,13.205199 L 50.58886,21.188922 C 49.897805,21.616052 51.571027,11.339955 50.954951,10.553549 49.312372,10.553479 45.908391,18.578518 41.12515,23.625735 40.453679,24.334263 36.932815,16.693802 36.231719,17.323872 34.222495,19.129547 35.412271,25.544713 34.084798,28.355163 33.646673,29.282736 33.188848,31.044882 31.732452,30.664925 30.329573,30.29893 27.93002,27.0916 27.341422,27.496487 25.707372,28.620526 27.588707,33.771613 27.134999,34.305969 26.768962,34.737071 27.352003,37.041829 26.887822,36.847719 L 23.085716,35.257761 C 22.118243,34.853184 23.814651,38.624161 23.770941,41.360974 23.755255,42.343147 21.018591,41.844311 20.912753,42.880934 20.760699,44.370209 24.271454,44.809912 24.759255,46.798008 25.368977,49.28301 23.045173,53.391863 23.523376,55.84609 23.930991,57.938046 30.264764,60.84716 31.889764,61.19685 35.427956,61.958247 35.261125,56.066634 36.683071,59.028543 39.02818,63.913401 42.255352,60.749815 44.356299,64.740157 z"
       id="path3051-3-7"
       style="fill:#f9f9f9;fill-opacity:1" /><path
       id="path3935"
       d="M 50.875,8.09375 C 49.755219,8.09375 49.555593,8.247865 48.28125,9.90625 46.63275,12.051557 43.353632,17.669558 41.84375,20.9375 41.25457,22.212704 40.580324,23.25 40.34375,23.25 39.855153,23.25 39.862658,23.241115 38.375,18.96875 37.205337,15.609635 36.504285,14.580828 35.65625,14.90625 34.952031,15.176484 34.86563,15.513679 34.46875,20.21875 34.279064,22.467483 33.894054,25.377355 33.625,26.6875 33.355946,27.997642 33.088184,29.46009 33,29.9375 32.811391,30.958603 33.483801,31.161206 34.21875,30.28125 35.069955,29.262108 35.443016,27.918466 35.90625,24.40625 36.159491,22.486211 36.514903,20.766347 36.6875,20.59375 37.174436,20.106814 37.804123,21.203577 38.78125,24.1875 39.65074,26.842729 40.385736,27.96875 41.21875,27.96875 41.878403,27.96875 42.291692,27.31424 42.65625,25.6875 43.425321,22.255752 47.142059,14.71875 48.0625,14.71875 48.235753,14.71875 48.37398,16.422558 48.375,18.75 48.375966,20.963447 48.506706,23.317736 48.6875,23.96875 48.967955,24.978619 49.14764,25.125 49.90625,25.125 50.587052,25.125 51.018936,24.839742 51.6875,23.875 52.687003,22.43272 57.364052,17.875 57.84375,17.875 58.335727,17.875 58.201298,18.601652 57.34375,21.15625 56.122912,24.793068 56.348496,26.337227 58.03125,26 60.423869,25.520515 70.22394,22.651079 70.53125,22.34375 70.723382,22.151625 70.805171,21.898919 70.6875,21.78125 70.366869,21.460614 66.294276,22.261104 63.0625,23.28125 59.910678,24.276167 59.233067,24.37255 58.90625,23.84375 58.5472,23.262796 63.184799,14.445984 64.25,13.6875 65.118682,13.068941 65.137319,13.02248 64.59375,12.625 63.628703,11.919351 61.607,12.098455 60.6875,12.96875 58.513754,15.026127 50.741605,20.679105 50.46875,20.40625 50.002024,19.939525 50.768467,14.19051 51.6875,11.28125 52.13267,9.8720361 52.41801,8.576972 52.3125,8.40625 52.206987,8.235531 51.549021,8.09375 50.875,8.09375 z M 26.46875,25.9375 C 26.414518,25.963094 26.38256,26.105284 26.34375,26.34375 26.194745,27.259305 28.083501,36.522997 28.53125,37.0625 29.249758,37.92825 29.520947,37.433347 29.3125,35.625 29.067836,33.502445 27.774162,28.605382 27,26.84375 26.704353,26.170994 26.559136,25.894843 26.46875,25.9375 z M 71.71875,26.5625 C 70.939624,26.56019 69.983561,26.57772 68.84375,26.59375 65.526688,26.640402 62.721019,26.747744 62.625,26.84375 62.528981,26.939753 62.937778,27.486123 63.53125,28.0625 64.313193,28.821896 65.005882,30.134133 66,32.75 66.754513,34.735417 67.622583,36.968783 67.9375,37.75 68.823983,39.94936 70.348788,47.302767 70.78125,51.5 71.08875,54.484506 71.084394,55.569707 70.78125,56.6875 70.251348,58.641382 69.405952,60.178278 68.34375,61.15625 65.957236,63.353568 56.726096,67.125 53.71875,67.125 52.042098,67.125 48.992853,66.073369 46.625,64.6875 44.8243,63.63358 38.067383,58.997005 36.375,57.65625 35.630859,57.066721 35.498097,57.043555 34.1875,57.5 33.423116,57.766214 32.462103,58.286091 32.03125,58.625 30.964825,59.46385 29.011875,59.391019 27.03125,58.46875 24.78436,57.422504 24.0625,56.405986 24.0625,54.28125 24.0625,51.983441 24.782981,51.255002 27.625,50.71875 29.680316,50.330941 30.636656,49.773133 29.71875,49.5 29.471009,49.426282 28.38123,48.44029 27.3125,47.3125 L 25.375,45.28125 24.46875,45.78125 C 23.975046,46.055645 23.025501,46.48016 22.34375,46.75 20.628207,47.429018 21.213126,48.068899 23.09375,47.5625 25.481324,46.919592 26.287598,48.032206 24.0625,48.90625 22.625027,49.470904 21.84375,50.828095 21.84375,52.8125 21.84375,56.594564 26.47092,60.497321 31.5625,61.03125 32.897518,61.171247 33.360326,61.090776 33.875,60.625 34.439566,60.114075 34.654783,60.111141 35.875,60.4375 36.63659,60.641194 38.462154,61.561752 39.90625,62.5 41.350345,63.438253 44.298704,65.095498 46.46875,66.1875 L 50.40625,68.1875 54.125,68.3125 C 57.973614,68.460095 58.273145,68.595703 57.40625,69.78125 57.030881,70.2946 56.61749,70.353819 53.8125,70.21875 50.956728,70.081234 50.443115,69.943199 48.28125,68.875 46.965311,68.224781 45.627894,67.751972 45.3125,67.8125 44.99711,67.873031 44.371509,68.576759 43.9375,69.375 42.810597,71.447617 42.403952,71.84375 41.4375,71.84375 40.344103,71.84375 40.106144,72.107823 40.5,72.84375 40.748995,73.309003 40.536757,73.864102 39.53125,75.53125 38.830905,76.692436 38.25,77.925445 38.25,78.25 38.25,78.574549 38.656215,79.219874 39.15625,79.6875 39.876131,80.36072 40.099444,80.894939 40.21875,82.21875 40.368223,83.87726 41.083629,84.982594 42.4375,85.6875 42.626376,85.68996 42.81054,85.6875 43,85.6875 L 46.375,85.6875 C 45.818158,85.637906 45.21153,85.527158 44.71875,85.3125 42.681163,84.424924 42.171507,83.224709 43.3125,82 43.997786,81.264433 45.448694,81.095805 46.4375,81.625 47.054557,81.955238 48.18166,84.941323 47.875,85.4375 47.775159,85.599049 47.440072,85.664162 47.03125,85.6875 L 50.78125,85.6875 C 50.634859,85.503755 50.5625,85.276941 50.5625,85 50.5625,84.578974 50.761493,84.154022 51,84.0625 51.721891,83.785486 61.276632,83.150121 61.78125,83.34375 62.352122,83.562816 62.390286,84.91258 61.84375,85.34375 61.708122,85.450758 61.045807,85.57701 60.21875,85.6875 L 65.15625,85.6875 C 65.212233,85.04229 65.391874,84.564382 65.71875,84.1875 66.060781,83.793111 66.427182,83.202914 66.53125,82.875 66.731683,82.243466 65.557498,79.404027 64.46875,77.875 63.622574,76.686674 63.66816,76.123465 64.625,75.6875 66.003887,75.059245 65.652062,74.339634 62.1875,70.65625 60.992664,69.385958 60.05821,68.169055 60.125,67.96875 60.25192,67.587968 61.833462,66.666018 65.59375,64.78125 68.215419,63.467203 70.445945,61.253666 71.5625,58.84375 72.623535,56.553564 72.805469,54.997035 72.25,52.59375 71.989595,51.467037 71.608578,48.763796 71.40625,46.59375 71.096857,43.275561 70.772193,41.83816 69.34375,37.46875 68.080167,33.603606 67.744993,32.211315 68.03125,32.03125 68.242921,31.898127 69.606659,31.858533 71.0625,31.96875 73.235734,32.133276 73.681749,32.107727 73.5625,31.75 73.359351,31.140508 72.252286,30.880301 69.59375,30.84375 67.065038,30.808981 65.903448,30.155648 66.09375,28.84375 66.221743,27.961184 67.112555,27.731731 70.625,27.6875 73.819434,27.647271 74.875,27.464904 74.875,26.90625 74.875,26.689415 74.056128,26.56943 71.71875,26.5625 z M 50.09375,28.4375 C 49.989798,28.429426 49.790124,28.483445 49.5,28.59375 48.38066,29.019322 46.15625,30.544071 46.15625,30.875 46.15625,31.457286 47.154755,31.092939 48.59375,30 49.888221,29.016827 50.405606,28.461721 50.09375,28.4375 z M 43.59375,30.5625 C 42.441795,30.752593 39.036265,33.451914 39.375,34 39.470612,34.154702 39.744637,34.28125 39.96875,34.28125 40.54983,34.28125 42.75441,32.627256 43.59375,31.5625 44.211366,30.779008 44.2634,30.653742 43.8125,30.5625 43.757464,30.551363 43.670547,30.549827 43.59375,30.5625 z M 58.3125,31.125 C 55.58365,31.243242 52.693113,31.915125 52.53125,32.78125 52.405078,33.456394 52.570208,33.485094 53.75,32.875 54.641329,32.414076 56.493362,32.216248 61.15625,32.09375 63.297131,32.037512 63.323762,32.013868 62.40625,31.59375 61.52866,31.191904 59.94981,31.054055 58.3125,31.125 z M 22.125,34.625 C 21.94825,34.609925 21.825804,34.701782 21.71875,34.875 21.532761,35.175937 23.049311,37.378946 24.5,38.9375 25.336082,39.835748 26.28125,40.307491 26.28125,39.8125 26.28125,39.165122 24.528009,36.414042 23.59375,35.59375 22.861008,34.950394 22.419583,34.650126 22.125,34.625 z M 20.84375,39.125 C 20.575413,39.1686 20.723969,39.855446 21.3125,41.15625 22.201212,43.120532 22.062804,43.75 20.75,43.75 20.001446,43.75 19.183516,44.464766 19.53125,44.8125 19.797789,45.079035 21.885916,44.745947 24.0625,44.09375 26.339754,43.411383 26.379631,42.726721 24.21875,41.46875 23.350732,40.963431 22.256849,40.167746 21.78125,39.71875 21.315984,39.27951 21.004752,39.09884 20.84375,39.125 z M 63.125,40.34375 C 62.423956,40.443237 62.415028,40.51299 62.5,43.75 L 62.59375,47.0625 61.5625,47.71875 C 60.993837,48.069546 60.5,48.555683 60.5,48.8125 60.5,49.283076 60.641511,49.304315 62.90625,48.9375 63.734813,48.803301 64.137262,48.881832 64.46875,49.28125 65.043568,49.973852 64.952687,52.116674 64.3125,53.09375 63.898787,53.725137 63.559761,53.875 62.25,53.875 60.587761,53.875 60.09525,54.439355 61.21875,55.09375 62.531731,55.858484 64.401242,55.384643 66.15625,53.84375 67.160247,52.962225 67.3125,52.674499 67.3125,51.375 67.3125,50.011598 66.892224,49.013191 65.875,47.96875 65.677092,47.765558 65.397943,46.568257 65.28125,45.3125 65.164525,44.056742 64.808098,42.39212 64.46875,41.625 63.966752,40.490143 63.709034,40.260872 63.125,40.34375 z M 55.9375,41.40625 C 55.182469,41.40625 55.353201,45.445951 56.1875,47.3125 56.968341,49.059452 57.994045,49.393327 58.34375,48 58.782581,46.251554 57.016355,41.40625 55.9375,41.40625 z M 55.71875,60.875 C 55.492334,60.878449 55.300898,60.893352 55.125,60.9375 53.858251,61.255434 54.263588,62.189881 55.78125,62.4375 57.04554,62.643776 59.031571,62.530923 59.3125,62.25 59.841869,61.720629 57.303662,60.85086 55.71875,60.875 z M 47.0625,70.28125 C 47.469717,70.28125 47.71547,70.536828 47.78125,71 47.881482,71.705755 47.911625,71.710434 52.5,71.59375 56.867244,71.482687 57.147717,71.491466 57.78125,72.125 58.572059,72.915805 58.671624,73.917785 57.96875,74.1875 57.694146,74.292879 55.529103,74.360005 53.15625,74.34375 49.336059,74.317584 48.621842,74.228268 46.875,73.53125 45.789977,73.098306 44.90625,72.563618 44.90625,72.34375 44.90625,71.697369 46.384176,70.28125 47.0625,70.28125 z M 61.875,73.5 C 62.069259,73.472247 62.25,73.596298 62.25,73.875 62.25,74.149872 62.024894,74.375 61.75,74.375 61.475138,74.375 61.306284,74.206158 61.375,74 61.472549,73.707364 61.680741,73.527753 61.875,73.5 z M 43.75,74.09375 C 44.460587,74.075349 45.291874,74.417714 46.3125,75.09375 48.087317,76.269338 48.595405,76.302704 54.09375,75.65625 57.493558,75.256519 57.851529,75.243202 58.625,75.75 59.860973,76.559842 59.544116,77.317813 57.84375,77.59375 51.315515,78.65315 49.993185,78.72945 48.28125,78.09375 47.371121,77.755785 45.602377,77.099509 44.34375,76.65625 41.9797,75.823693 41.540418,75.29959 42.59375,74.5 42.932657,74.242732 43.323648,74.104791 43.75,74.09375 z M 41.59375,77.21875 C 43.598092,77.197914 46.849461,78.669819 46.375,79.90625 46.150003,80.492579 46.079878,80.462148 44.09375,79.71875 43.225732,79.393852 42.091991,79.132219 41.5625,79.125 40.318437,79.108036 39.77116,78.590433 40.1875,77.8125 40.39851,77.418225 40.925636,77.225695 41.59375,77.21875 z M 59.9375,78.96875 C 60.214634,78.963752 60.371592,78.97858 60.40625,79 60.54488,79.08568 60.821284,79.705481 61.03125,80.40625 61.496351,81.958622 61.196801,82.27129 59.09375,82.28125 58.312533,82.284951 56.545079,82.353227 55.15625,82.4375 52.501328,82.598593 51.038372,82.259148 50.03125,81.25 48.968063,80.184684 49.992991,79.786904 55.28125,79.28125 57.287694,79.089398 59.106098,78.983744 59.9375,78.96875 z M 63.5,79.125 C 63.892367,79.133889 64.46875,80.205056 64.46875,81.0625 64.46875,81.550131 64.322877,81.96875 64.15625,81.96875 63.760496,81.96875 63.039092,79.492148 63.34375,79.1875 63.389771,79.141478 63.443948,79.12373 63.5,79.125 z"
       style="fill:#1f1f1f"
       inkscape:connector-curvature="0" /></g></svg>